<svg width="50" height="38" viewBox="0 0 50 38" fill="none" xmlns="http://www.w3.org/2000/svg">
<path className="bell-svg" d="M28.125 6.49805V4.6875H29.6875C30.5508 4.6875 31.25 3.98828 31.25 3.125V1.5625C31.25 0.699219 30.5508 0 29.6875 0H20.3125C19.4492 0 18.75 0.699219 18.75 1.5625V3.125C18.75 3.98828 19.4492 4.6875 20.3125 4.6875H21.875V6.49805C11.2783 8.01855 3.125 17.1074 3.125 28.125H46.875C46.875 17.1074 38.7217 8.01855 28.125 6.49805ZM48.4375 31.25H1.5625C0.699219 31.25 0 31.9492 0 32.8125V35.9375C0 36.8008 0.699219 37.5 1.5625 37.5H48.4375C49.3008 37.5 50 36.8008 50 35.9375V32.8125C50 31.9492 49.3008 31.25 48.4375 31.25Z" fill="white"/>
</svg>
