<svg width="100" height="59" viewBox="0 0 100 59" fill="none" xmlns="http://www.w3.org/2000/svg">
<path d="M18.75 27.5625C10.1203 27.5625 3.125 34.5578 3.125 43.1875C3.125 51.8172 10.1203 58.8125 18.75 58.8125C27.3797 58.8125 34.375 51.8172 34.375 43.1875C34.375 34.5578 27.3797 27.5625 18.75 27.5625ZM18.75 52.5625C13.5719 52.5625 9.375 48.3656 9.375 43.1875C9.375 38.0094 13.5719 33.8125 18.75 33.8125C23.9281 33.8125 28.125 38.0094 28.125 43.1875C28.125 48.3656 23.9281 52.5625 18.75 52.5625Z" fill="#8892A0"/>
<path d="M81.25 27.5625C72.6203 27.5625 65.625 34.5578 65.625 43.1875C65.625 51.8172 72.6203 58.8125 81.25 58.8125C89.8797 58.8125 96.875 51.8172 96.875 43.1875C96.875 34.5578 89.8797 27.5625 81.25 27.5625ZM81.25 52.5625C76.0719 52.5625 71.875 48.3656 71.875 43.1875C71.875 38.0094 76.0719 33.8125 81.25 33.8125C86.4281 33.8125 90.625 38.0094 90.625 43.1875C90.625 48.3656 86.4281 52.5625 81.25 52.5625Z" fill="#8892A0"/>
<path d="M57.8125 2.5625H67.1875C68.9141 2.5625 70.3125 3.96094 70.3125 5.6875C70.3125 7.41406 68.9141 8.8125 67.1875 8.8125H57.8125C56.0859 8.8125 54.6875 7.41406 54.6875 5.6875C54.6875 3.96094 56.0859 2.5625 57.8125 2.5625Z" fill="#3D98F7"/>
<path d="M20.2064 43.7531L17.2939 42.6203L28.1252 14.7688V8.8125H31.2502V15.0625C31.2502 15.2562 31.2143 15.4484 31.144 15.6281L20.2064 43.7531Z" fill="#00E75C"/>
<path d="M62.5 8.8125H65.625V15.0625H62.5V8.8125Z" fill="#8892A0"/>
<path d="M37.5 10.375H25C22.4156 10.375 20.3125 8.27188 20.3125 5.6875C20.3125 3.10312 22.4156 1 25 1V4.125C24.1391 4.125 23.4375 4.82656 23.4375 5.6875C23.4375 6.54844 24.1391 7.25 25 7.25H37.5V10.375Z" fill="#8892A0"/>
<path d="M54.6875 51H46.875C46.0125 51 45.3125 50.3 45.3125 49.4375V41.625H48.4375V47.875H54.6875V51Z" fill="#8892A0"/>
<path d="M82.5843 42.3734L65.3968 14.2484L65.3905 14.2516C65.1077 13.7891 64.6077 13.5 64.0624 13.5H29.6874C29.1218 13.5 28.6014 13.8047 28.3249 14.2984C28.0483 14.7906 28.0593 15.3953 28.3546 15.8781L45.5421 44.0031C45.8264 44.4672 46.3311 44.75 46.8749 44.75H81.2499C81.8155 44.75 82.3358 44.4453 82.6124 43.9516C82.8889 43.4594 82.878 42.8547 82.5843 42.3734V42.3734ZM32.4733 16.625H61.2764L46.8749 40.1906L32.4733 16.625ZM49.6608 41.625L64.0624 18.0594L78.4639 41.625H49.6608Z" fill="#00E75C"/>
</svg>
