<svg width="3638" height="186" viewBox="0 0 3638 186" fill="none" xmlns="http://www.w3.org/2000/svg">
<path d="M61.493 97.3314C73.2383 96.1747 79.8107 111.809 70.784 119.741H3.10995C-5.59555 104.949 5.14464 85.2626 20.8477 89.0829C33.4379 68.5913 56.7587 79.5703 61.493 97.3314Z" fill="white"/>
<path d="M3613.87 38.2718C3634.85 36.2212 3646.6 63.9389 3630.47 78.0002H3509.56C3494 51.7761 3513.19 16.8754 3541.25 23.6483C3563.74 -12.6804 3605.41 6.78374 3613.87 38.2718Z" fill="white"/>
<path d="M685.493 78.3103C697.238 77.1536 703.811 92.788 694.784 100.719H627.11C618.404 85.9275 629.145 66.2415 644.848 70.0618C657.438 49.5703 680.759 60.5492 685.493 78.3103Z" fill="white"/>
<path d="M2756.88 103.8C2762.2 103.273 2765.18 110.39 2761.09 114H2730.41C2726.46 107.267 2731.33 98.306 2738.45 100.045C2744.16 90.7173 2754.73 95.7149 2756.88 103.8Z" fill="white"/>
<path d="M2730.41 23.6482C2744.03 22.2903 2751.66 40.6439 2741.19 49.9548H2662.69C2652.59 32.5902 2665.05 9.48029 2683.26 13.965C2697.87 -10.0905 2724.92 2.79794 2730.41 23.6482Z" fill="white"/>
<path d="M1778.36 133.431C1770.22 132.627 1765.66 143.49 1771.92 149H1818.84C1824.88 138.723 1817.43 125.046 1806.55 127.7C1797.82 113.463 1781.65 121.091 1778.36 133.431Z" fill="white"/>
<path d="M2647.75 56.9431C2659.34 55.8069 2665.82 71.1641 2656.92 78.9548H2590.15C2581.56 64.4252 2592.15 45.0884 2607.65 48.8409C2620.07 28.7128 2643.08 39.497 2647.75 56.9431Z" fill="white"/>
<path d="M245.75 179C248.638 179 251 176.93 251 174.4C251 171.87 248.638 169.8 245.75 169.8H245.488C245.488 169.11 245.75 168.42 245.75 167.5C245.75 162.44 241.025 158.3 235.25 158.3C233.15 158.3 231.313 158.76 229.475 159.68C228.688 157.61 226.325 156 223.438 156C219.763 156 216.875 158.53 216.875 161.75C216.875 163.13 217.4 164.28 218.45 165.43C217.925 165.2 217.4 165.2 216.875 165.2C212.412 165.2 209 168.19 209 172.1C209 176.01 212.412 179 216.875 179H245.75Z" fill="white"/>
<path d="M3217.75 92.0002C3220.64 92.0002 3223 89.9302 3223 87.4002C3223 84.8702 3220.64 82.8002 3217.75 82.8002H3217.49C3217.49 82.1102 3217.75 81.4202 3217.75 80.5002C3217.75 75.4402 3213.03 71.3002 3207.25 71.3002C3205.15 71.3002 3203.31 71.7602 3201.48 72.6802C3200.69 70.6102 3198.33 69.0002 3195.44 69.0002C3191.76 69.0002 3188.88 71.5302 3188.88 74.7502C3188.88 76.1302 3189.4 77.2802 3190.45 78.4302C3189.92 78.2002 3189.4 78.2002 3188.88 78.2002C3184.41 78.2002 3181 81.1902 3181 85.1002C3181 89.0102 3184.41 92.0002 3188.88 92.0002H3217.75Z" fill="white"/>
<path fill-rule="evenodd" clip-rule="evenodd" d="M799.271 171.396C797.818 171.396 796.44 171.788 795.126 172.364C791.092 166.395 784.478 162.489 776.997 162.489C775.8 162.489 774.631 162.615 773.481 162.811C769.516 156.306 762.617 151.979 754.735 151.979C743.633 151.979 734.45 160.57 732.77 171.788C732.665 171.788 732.572 171.765 732.473 171.765C725.028 171.765 719 178.126 719 185.979H812C811.192 177.769 805.833 171.396 799.271 171.396Z" fill="white"/>
<path fill-rule="evenodd" clip-rule="evenodd" d="M2797.84 107.128C2799.76 107.128 2801.58 107.635 2803.32 108.381C2808.65 100.656 2817.4 95.6006 2827.29 95.6006C2828.88 95.6006 2830.42 95.7646 2831.95 96.0181C2837.19 87.5999 2846.31 82.0002 2856.74 82.0002C2871.42 82.0002 2883.57 93.1176 2885.79 107.635C2885.93 107.635 2886.05 107.605 2886.18 107.605C2896.03 107.605 2904 115.837 2904 126H2781C2782.07 115.375 2789.16 107.128 2797.84 107.128Z" fill="white"/>
<path fill-rule="evenodd" clip-rule="evenodd" d="M71.8168 158.801C79.7173 158.801 86.6859 162.104 90.9496 166.307C92.3369 165.877 93.8237 165.647 95.3287 165.632C99.1222 165.632 102.495 167.001 104.945 169.166H137C137 163.588 131.211 159.063 124.052 159.063C123.962 159.063 123.871 159.081 123.772 159.081C122.156 151.113 113.34 145 102.668 145C95.106 145 88.4838 148.084 84.6737 152.707C83.5543 152.562 82.4207 152.484 81.2842 152.476C75.2475 152.476 69.8128 153.911 65.9451 157.062C66.712 157.688 67.4625 158.333 68.0975 159.039C69.3271 158.889 70.5706 158.81 71.8168 158.801Z" fill="white"/>
<path fill-rule="evenodd" clip-rule="evenodd" d="M103.855 172.803C101.398 170.407 98.0085 168.886 94.1902 168.886C92.6397 168.886 91.1801 169.184 89.7946 169.634C85.5062 164.981 78.5046 161.946 70.5629 161.946C69.2846 161.946 68.0476 162.043 66.827 162.195C66.1822 161.423 65.4542 160.691 64.6499 160.005C60.3203 156.186 54.8114 152.36 47.7355 152.36C35.9425 152.36 25.3948 160.449 23.6135 169.196C23.5062 169.19 23.4155 169.172 23.3001 169.172C15.3996 169.172 9 176.106 9 182.219H107.707C107.319 179.324 105.901 174.78 103.855 172.803Z" fill="white"/>
<path fill-rule="evenodd" clip-rule="evenodd" d="M1667.55 71.8014C1673.91 71.8014 1679.51 75.1042 1682.94 79.3072C1684.06 78.8767 1685.26 78.6475 1686.47 78.6321C1689.52 78.6321 1692.23 80.0006 1694.21 82.166H1720C1720 76.5883 1715.34 72.063 1709.58 72.063C1709.51 72.063 1709.44 72.0812 1709.36 72.0812C1708.05 64.1131 1700.96 58.0002 1692.37 58.0002C1686.29 58.0002 1680.96 61.084 1677.89 65.7067C1676.99 65.5618 1676.08 65.4845 1675.17 65.4756C1670.31 65.4756 1665.94 66.9111 1662.82 70.0618C1663.44 70.6883 1664.04 71.333 1664.55 72.0386C1665.54 71.8889 1666.54 71.8096 1667.55 71.8014Z" fill="white"/>
<path fill-rule="evenodd" clip-rule="evenodd" d="M1693.33 85.8031C1691.35 83.4066 1688.62 81.8859 1685.55 81.8859C1684.3 81.8859 1683.13 82.184 1682.01 82.6341C1678.56 77.981 1672.93 74.9458 1666.54 74.9458C1665.51 74.9458 1664.51 75.0431 1663.53 75.1952C1663.01 74.4233 1662.43 73.6911 1661.78 73.0055C1658.3 69.1856 1653.86 65.3597 1648.17 65.3597C1638.68 65.3597 1630.19 73.4495 1628.76 82.1961C1628.67 82.1901 1628.6 82.1718 1628.51 82.1718C1622.15 82.1718 1617 89.1059 1617 95.2188H1696.43C1696.12 92.3235 1694.97 87.7799 1693.33 85.8031Z" fill="white"/>
</svg>
