<svg width="3638" height="186" viewBox="0 0 3638 186" fill="none" xmlns="http://www.w3.org/2000/svg">
<path d="M61.493 96.3766C73.2383 95.2199 79.8107 110.854 70.784 118.786H3.10995C-5.59555 103.994 5.14464 84.3077 20.8477 88.1281C33.4379 67.6365 56.7587 78.6154 61.493 96.3766Z" fill="white"/>
<path d="M3613.87 37.317C3634.85 35.2663 3646.6 62.9841 3630.47 77.0453H3509.56C3494 50.8212 3513.19 15.9206 3541.25 22.6935C3563.74 -13.6353 3605.41 5.8289 3613.87 37.317Z" fill="white"/>
<path d="M685.493 77.3555C697.238 76.1988 703.811 91.8332 694.784 99.7646H627.11C618.404 84.9727 629.145 65.2867 644.848 69.107C657.438 48.6154 680.759 59.5943 685.493 77.3555Z" fill="white"/>
<path d="M2756.88 102.845C2762.2 102.318 2765.18 109.435 2761.09 113.045H2730.41C2726.46 106.312 2731.33 97.3512 2738.45 99.0901C2744.16 89.7625 2754.73 94.7601 2756.88 102.845Z" fill="white"/>
<path d="M2730.41 22.6933C2744.03 21.3355 2751.66 39.6891 2741.19 48.9999H2662.69C2652.59 31.6353 2665.05 8.52545 2683.26 13.0102C2697.87 -11.0453 2724.92 1.84311 2730.41 22.6933Z" fill="white"/>
<path d="M1848.08 149.108C1839.93 148.304 1835.37 159.167 1841.63 164.677H1888.55C1894.59 154.4 1887.14 140.723 1876.26 143.377C1867.53 129.14 1851.36 136.768 1848.08 149.108Z" fill="white"/>
<path d="M2647.75 55.9883C2659.34 54.8521 2665.82 70.2092 2656.92 77.9999H2590.15C2581.56 63.4704 2592.15 44.1335 2607.65 47.8861C2620.07 27.758 2643.08 38.5422 2647.75 55.9883Z" fill="white"/>
<path d="M245.75 178.045C248.638 178.045 251 175.975 251 173.445C251 170.915 248.638 168.845 245.75 168.845H245.488C245.488 168.155 245.75 167.465 245.75 166.545C245.75 161.485 241.025 157.345 235.25 157.345C233.15 157.345 231.313 157.805 229.475 158.725C228.688 156.655 226.325 155.045 223.438 155.045C219.763 155.045 216.875 157.575 216.875 160.795C216.875 162.175 217.4 163.325 218.45 164.475C217.925 164.245 217.4 164.245 216.875 164.245C212.412 164.245 209 167.235 209 171.145C209 175.055 212.412 178.045 216.875 178.045H245.75Z" fill="white"/>
<path d="M3217.75 91.0453C3220.64 91.0453 3223 88.9754 3223 86.4454C3223 83.9154 3220.64 81.8454 3217.75 81.8454H3217.49C3217.49 81.1554 3217.75 80.4653 3217.75 79.5453C3217.75 74.4853 3213.03 70.3454 3207.25 70.3454C3205.15 70.3454 3203.31 70.8053 3201.48 71.7253C3200.69 69.6553 3198.33 68.0453 3195.44 68.0453C3191.76 68.0453 3188.88 70.5753 3188.88 73.7953C3188.88 75.1753 3189.4 76.3253 3190.45 77.4753C3189.92 77.2453 3189.4 77.2453 3188.88 77.2453C3184.41 77.2453 3181 80.2353 3181 84.1453C3181 88.0553 3184.41 91.0453 3188.88 91.0453H3217.75Z" fill="white"/>
<path fill-rule="evenodd" clip-rule="evenodd" d="M799.271 170.441C797.818 170.441 796.44 170.833 795.126 171.409C791.092 165.44 784.478 161.534 776.997 161.534C775.8 161.534 774.631 161.66 773.481 161.856C769.516 155.351 762.617 151.024 754.735 151.024C743.633 151.024 734.45 159.615 732.77 170.833C732.665 170.833 732.572 170.81 732.473 170.81C725.028 170.81 719 177.171 719 185.024H812C811.192 176.814 805.833 170.441 799.271 170.441Z" fill="white"/>
<path fill-rule="evenodd" clip-rule="evenodd" d="M2797.84 106.173C2799.76 106.173 2801.58 106.68 2803.32 107.426C2808.65 99.7012 2817.4 94.6458 2827.29 94.6458C2828.88 94.6458 2830.42 94.8098 2831.95 95.0633C2837.19 86.6451 2846.31 81.0453 2856.74 81.0453C2871.42 81.0453 2883.57 92.1628 2885.79 106.68C2885.93 106.68 2886.05 106.65 2886.18 106.65C2896.03 106.65 2904 114.882 2904 125.045H2781C2782.07 114.42 2789.16 106.173 2797.84 106.173Z" fill="white"/>
<path fill-rule="evenodd" clip-rule="evenodd" d="M71.8168 157.847C79.7173 157.847 86.6859 161.149 90.9496 165.352C92.3369 164.922 93.8237 164.693 95.3287 164.677C99.1222 164.677 102.495 166.046 104.945 168.211H137C137 162.634 131.211 158.108 124.052 158.108C123.962 158.108 123.871 158.126 123.772 158.126C122.156 150.158 113.34 144.045 102.668 144.045C95.106 144.045 88.4838 147.129 84.6737 151.752C83.5543 151.607 82.4207 151.53 81.2842 151.521C75.2475 151.521 69.8128 152.956 65.9451 156.107C66.712 156.733 67.4625 157.378 68.0975 158.084C69.3271 157.934 70.5706 157.855 71.8168 157.847Z" fill="white"/>
<path fill-rule="evenodd" clip-rule="evenodd" d="M103.855 171.848C101.398 169.452 98.0085 167.931 94.1902 167.931C92.6397 167.931 91.1801 168.229 89.7946 168.679C85.5062 164.026 78.5046 160.991 70.5629 160.991C69.2846 160.991 68.0476 161.088 66.827 161.24C66.1822 160.468 65.4542 159.736 64.6499 159.051C60.3203 155.231 54.8114 151.405 47.7355 151.405C35.9425 151.405 25.3948 159.495 23.6135 168.241C23.5062 168.235 23.4155 168.217 23.3001 168.217C15.3996 168.217 9 175.151 9 181.264H107.707C107.319 178.369 105.901 173.825 103.855 171.848Z" fill="white"/>
<path fill-rule="evenodd" clip-rule="evenodd" d="M1667.55 70.8466C1673.91 70.8466 1679.51 74.1494 1682.94 78.3524C1684.06 77.9219 1685.26 77.6926 1686.47 77.6772C1689.52 77.6772 1692.23 79.0458 1694.21 81.2112H1720C1720 75.6335 1715.34 71.1081 1709.58 71.1081C1709.51 71.1081 1709.44 71.1264 1709.36 71.1264C1708.05 63.1583 1700.96 57.0453 1692.37 57.0453C1686.29 57.0453 1680.96 60.1292 1677.89 64.7519C1676.99 64.607 1676.08 64.5297 1675.17 64.5208C1670.31 64.5208 1665.94 65.9562 1662.82 69.107C1663.44 69.7335 1664.04 70.3782 1664.55 71.0838C1665.54 70.9341 1666.54 70.8548 1667.55 70.8466Z" fill="white"/>
<path fill-rule="evenodd" clip-rule="evenodd" d="M1693.33 84.8482C1691.35 82.4517 1688.62 80.9311 1685.55 80.9311C1684.3 80.9311 1683.13 81.2291 1682.01 81.6792C1678.56 77.0261 1672.93 73.9909 1666.54 73.9909C1665.51 73.9909 1664.51 74.0883 1663.53 74.2403C1663.01 73.4685 1662.43 72.7362 1661.78 72.0506C1658.3 68.2308 1653.86 64.4049 1648.17 64.4049C1638.68 64.4049 1630.19 72.4946 1628.76 81.2413C1628.67 81.2352 1628.6 81.217 1628.51 81.217C1622.15 81.217 1617 88.151 1617 94.264H1696.43C1696.12 91.3687 1694.97 86.825 1693.33 84.8482Z" fill="white"/>
<path d="M1022.71 41.4761C1014.56 40.6725 1010 51.5348 1016.26 57.0453H1063.18C1069.22 46.7683 1061.77 33.0911 1050.89 35.7453C1042.16 21.5084 1025.99 29.1362 1022.71 41.4761Z" fill="white"/>
<path d="M3466.47 184.534C3469.36 184.534 3471.72 182.464 3471.72 179.934C3471.72 177.404 3469.36 175.334 3466.47 175.334H3466.21C3466.21 174.644 3466.47 173.954 3466.47 173.034C3466.47 167.974 3461.75 163.834 3455.97 163.834C3453.87 163.834 3452.03 164.294 3450.2 165.214C3449.41 163.144 3447.05 161.534 3444.16 161.534C3440.48 161.534 3437.6 164.064 3437.6 167.284C3437.6 168.664 3438.12 169.814 3439.17 170.964C3438.65 170.734 3438.12 170.734 3437.6 170.734C3433.13 170.734 3429.72 173.724 3429.72 177.634C3429.72 181.544 3433.13 184.534 3437.6 184.534H3466.47Z" fill="white"/>
</svg>
