<svg width="157" height="131" viewBox="0 0 157 131" fill="none" xmlns="http://www.w3.org/2000/svg">
<path d="M82.8946 58.0638L69.2527 74.4512L54.1865 72.6379C54.5824 62.3433 56.25 52.1372 59.1519 42.2523C62.101 32.8297 65.8626 27 69.2527 27C74.1837 27 80.0988 39.7609 82.8946 58.0638V58.0638Z" fill="#2FA8CC"/>
<path d="M84.5047 78.8068V79.9083C84.4871 98.6179 81.657 114.989 77.4033 124.326C77.1203 124.92 76.5192 125.297 75.8616 125.292L62.5408 125.275C61.884 125.277 61.2837 124.902 60.9991 124.309C57.9485 117.53 55.6264 107.057 54.5928 94.6518L62.473 76.146L84.5047 78.8068Z" fill="#2FA8CC"/>
<path d="M84.5046 78.8072L54.5927 94.6523C54.2029 89.9753 54 85.0099 54 79.8744C54 77.4173 54.0671 74.9938 54.1861 72.6381L82.8943 58.064C83.9256 64.9311 84.4634 71.8631 84.5046 78.8072Z" fill="#67B9CC"/>
<path d="M72.6418 120.208C71.7058 120.208 70.9468 119.45 70.9468 118.514V113.43C70.9468 112.494 71.7058 111.735 72.6418 111.735C73.5778 111.735 74.3361 112.494 74.3361 113.43V118.514C74.3361 119.45 73.5778 120.208 72.6418 120.208V120.208Z" fill="#67B9CC"/>
<path d="M65.8627 120.208C64.9275 120.208 64.1685 119.45 64.1685 118.514V113.43C64.1685 112.494 64.9275 111.735 65.8627 111.735C66.7987 111.735 67.5578 112.494 67.5578 113.43V118.514C67.5578 119.45 66.7987 120.208 65.8627 120.208Z" fill="#67B9CC"/>
<path d="M105.769 67.2962C105.769 83.0225 103.544 98.6697 99.1598 113.773L96.0195 124.586C95.7819 125.404 95.3417 126.149 94.7399 126.751V126.751C93.7914 127.7 92.505 128.233 91.1637 128.233C89.8224 128.233 88.536 127.7 87.5876 126.751V126.751C86.9857 126.149 86.5456 125.404 86.3079 124.586L83.1677 113.773C78.7834 98.6697 76.5582 83.0225 76.5581 67.2962V67.2962C76.5577 54.6804 77.9896 42.1053 80.8263 29.8125L86.3506 5.87382C86.5596 4.97196 87.0174 4.14678 87.6718 3.49198V3.49198C88.5981 2.56626 89.8541 2.04625 91.1637 2.04625C92.4733 2.04625 93.7293 2.56626 94.6556 3.49197V3.49197C95.31 4.14678 95.7678 4.97196 95.9768 5.87382L101.501 29.8125C104.338 42.1053 105.77 54.6804 105.769 67.2962Z" fill="#E8594A"/>
<path d="M96.4037 50.3535C95.8285 49.4909 95.0493 48.7837 94.1352 48.2945C93.2211 47.8053 92.2004 47.5493 91.1636 47.5492C90.1268 47.5493 89.1061 47.8053 88.192 48.2945C87.2779 48.7837 86.4987 49.4909 85.9236 50.3535V50.3535C84.2123 52.9209 83.2991 55.9372 83.299 59.0226L83.299 73.39C83.2991 75.4758 84.1278 77.4761 85.6026 78.951C87.0775 80.4259 89.0778 81.2545 91.1636 81.2546V81.2546C93.2494 81.2545 95.2497 80.4259 96.7246 78.951C98.1995 77.4761 99.0281 75.4758 99.0282 73.39L99.0282 59.0226C99.0281 55.9372 98.1149 52.9209 96.4037 50.3535V50.3535Z" fill="#995023"/>
<path d="M99.0286 69.002L105.739 69.0009C105.746 68.4324 105.77 67.865 105.77 67.2965C105.77 66.8044 105.754 66.3145 105.748 65.8236L99.0286 65.8247L99.0286 69.002Z" fill="#CF453F"/>
<path d="M83.2989 65.8246L76.5759 65.8201C76.5702 66.3111 76.5545 66.801 76.5545 67.2931C76.5545 67.8616 76.5781 68.4289 76.5848 68.9974L83.2956 68.9986L83.2989 65.8246Z" fill="#CF453F"/>
<path d="M89.5737 13.4804L89.5737 22.4688L92.7515 22.4687L92.7515 13.4804L89.5737 13.4804Z" fill="#CF453F"/>
<path d="M86.6699 38.1995L84.4229 40.4465L86.6699 42.6936L88.9169 40.4465L86.6699 38.1995Z" fill="#7D411D"/>
<path d="M94.5341 37.076L92.2871 39.323L94.5341 41.57L96.7812 39.323L94.5341 37.076Z" fill="#7D411D"/>
<path d="M89.3821 113.475L86.2048 113.475L86.2048 95.1122C86.2096 93.3053 85.856 91.5154 85.1645 89.8461C84.4729 88.1768 83.4571 86.6612 82.1759 85.3871L84.423 83.14C86.0003 84.7084 87.2508 86.5742 88.102 88.6292C88.9533 90.6843 89.3884 92.8878 89.3821 95.1122L89.3821 113.475Z" fill="#CF453F"/>
<path d="M96.123 113.475L92.9457 113.475L92.9457 95.1125C92.9394 92.8882 93.3745 90.6847 94.2258 88.6296C95.077 86.5746 96.3275 84.7088 97.9049 83.1404L100.152 85.3874C98.8707 86.6615 97.8549 88.1771 97.1634 89.8464C96.4718 91.5158 96.1182 93.3057 96.123 95.1125L96.123 113.475Z" fill="#CF453F"/>
<path d="M91.1635 116.845L88.9165 119.092L91.1635 121.339L93.4106 119.092L91.1635 116.845Z" fill="#7D411D"/>
<path d="M83.3003 60.4773L83.3003 70.2124C83.3003 71.9674 84.723 73.3901 86.4781 73.3901L95.8509 73.3901C97.6059 73.3901 99.0287 71.9674 99.0287 70.2124L99.0287 60.4773C99.0287 58.7222 97.6059 57.2995 95.8509 57.2995L86.4781 57.2995C84.723 57.2995 83.3003 58.7222 83.3003 60.4773Z" fill="#C9C9C9"/>
<path d="M87.3617 73.3908L86.1954 79.442C87.0572 80.1527 88.0614 80.6703 89.1402 80.9599L90.5974 73.3908L87.3617 73.3908Z" fill="#663318"/>
<path d="M91.8783 73.3905L93.2377 80.945C94.3202 80.6482 95.3256 80.1204 96.1847 79.3979L95.1016 73.3961L91.8783 73.3905Z" fill="#663318"/>
<path d="M99.0284 60.4763C99.0283 59.6337 98.6935 58.8256 98.0976 58.2297C97.5018 57.6339 96.6937 57.2991 95.8511 57.299L86.4765 57.299C85.6339 57.2991 84.8258 57.6339 84.23 58.2297C83.6341 58.8256 83.2993 59.6337 83.2992 60.4763L83.2992 65.258L99.0284 65.258L99.0284 60.4763Z" fill="#A6A6A6"/>
<path d="M15.1667 96.7834C6.79012 96.7834 0 103.574 0 111.95C0 120.327 6.79012 127.117 15.1667 127.117C23.5432 127.117 30.3333 120.327 30.3333 111.95C30.3333 103.574 23.5432 96.7834 15.1667 96.7834ZM15.1667 121.05C10.1404 121.05 6.06667 116.976 6.06667 111.95C6.06667 106.924 10.1404 102.85 15.1667 102.85C20.1929 102.85 24.2667 106.924 24.2667 111.95C24.2667 116.976 20.1929 121.05 15.1667 121.05Z" fill="#5F6368"/>
<path d="M75.8332 96.7834C67.4566 96.7834 60.6665 103.574 60.6665 111.95C60.6665 120.327 67.4566 127.117 75.8332 127.117C84.2097 127.117 90.9998 120.327 90.9998 111.95C90.9998 103.574 84.2097 96.7834 75.8332 96.7834ZM75.8332 121.05C70.8069 121.05 66.7332 116.976 66.7332 111.95C66.7332 106.924 70.8069 102.85 75.8332 102.85C80.8594 102.85 84.9332 106.924 84.9332 111.95C84.9332 116.976 80.8594 121.05 75.8332 121.05Z" fill="#5F6368"/>
<path d="M53.0831 72.5166H62.1831C63.8591 72.5166 65.2165 73.874 65.2165 75.5499C65.2165 77.2259 63.8591 78.5833 62.1831 78.5833H53.0831C51.4072 78.5833 50.0498 77.2259 50.0498 75.5499C50.0498 73.874 51.4072 72.5166 53.0831 72.5166Z" fill="#3D98F7"/>
<path d="M16.5805 112.499L13.7534 111.399L24.267 84.3648V78.5833H27.3003V84.6499C27.3003 84.838 27.2654 85.0245 27.1972 85.199L16.5805 112.499Z" fill="#00E75C"/>
<path d="M57.6333 78.5833H60.6666V84.6499H57.6333V78.5833Z" fill="#8892A0"/>
<path d="M33.3664 80.1H21.2331C18.7245 80.1 16.6831 78.0586 16.6831 75.55C16.6831 73.0414 18.7245 71 21.2331 71V74.0333C20.3974 74.0333 19.7164 74.7143 19.7164 75.55C19.7164 76.3857 20.3974 77.0667 21.2331 77.0667H33.3664V80.1Z" fill="#8892A0"/>
<path d="M50.0502 119.533H42.4669C41.6297 119.533 40.9502 118.854 40.9502 118.017V110.433H43.9835V116.5H50.0502V119.533Z" fill="#8892A0"/>
<path d="M77.1284 111.16L60.4451 83.8598L60.439 83.8628C60.1645 83.4139 59.6791 83.1333 59.1498 83.1333H25.7832C25.2341 83.1333 24.7291 83.4291 24.4606 83.9083C24.1922 84.3861 24.2028 84.973 24.4894 85.4417L41.1728 112.742C41.4488 113.192 41.9387 113.467 42.4665 113.467H75.8332C76.3822 113.467 76.8872 113.171 77.1557 112.692C77.4241 112.214 77.4135 111.627 77.1284 111.16V111.16ZM28.4874 86.1666H56.4456L42.4665 109.041L28.4874 86.1666ZM45.1707 110.433L59.1498 87.5589L73.1289 110.433H45.1707Z" fill="#00E75C"/>
</svg>
