<svg width="36" height="24" viewBox="0 0 36 24" fill="none" xmlns="http://www.w3.org/2000/svg">
<path className="water-svg" d="M35.1312 19.9937C33.7875 19.8437 32.5 19.3375 31.5125 18.5625C30.6313 17.8687 29.375 17.8562 28.5 18.5625C26.1312 20.4625 21.8 20.4625 19.3937 18.4687C18.55 17.7687 17.3313 17.9 16.475 18.5812C14.1 20.4625 9.79375 20.4562 7.4 18.475C6.55625 17.775 5.31875 17.9187 4.45625 18.6C3.4875 19.3625 2.20625 19.8562 0.85 20C0.35625 20.05 0 20.4875 0 20.9812V22.9937C0 23.5625 0.475 24.0437 1.04375 23.9937C2.84375 23.8375 4.55 23.2812 6.00625 22.375C9.5375 24.5375 14.5688 24.5062 18.0063 22.375C21.5375 24.5375 26.5688 24.5062 30.0063 22.375C31.4625 23.2625 33.1875 23.8312 34.95 23.9875C35.5188 24.0375 35.9938 23.5562 35.9938 22.9875V21.0125C36 20.5125 35.6375 20.05 35.1312 19.9937V19.9937ZM35.1312 10.9937C33.7875 10.8437 32.5 10.3375 31.5125 9.5625C30.6313 8.86875 29.375 8.85625 28.5 9.5625C26.1312 11.4625 21.8 11.4625 19.3937 9.46875C18.55 8.76875 17.3313 8.9 16.475 9.58125C14.1 11.4625 9.79375 11.4562 7.4 9.475C6.55625 8.775 5.31875 8.91875 4.45625 9.6C3.4875 10.3625 2.20625 10.8562 0.85 11C0.35625 11.05 0 11.4875 0 11.9812V13.9937C0 14.5625 0.475 15.0437 1.04375 14.9937C2.84375 14.8375 4.55 14.2812 6.00625 13.375C9.5375 15.5375 14.5688 15.5062 18.0063 13.375C21.5375 15.5375 26.5688 15.5062 30.0063 13.375C31.4625 14.2625 33.1875 14.8312 34.95 14.9875C35.5188 15.0375 35.9938 14.5562 35.9938 13.9875V12.0125C36 11.5125 35.6375 11.05 35.1312 10.9937V10.9937ZM35.1312 1.99375C33.7875 1.8375 32.5 1.3375 31.5125 0.562499C30.6313 -0.131251 29.375 -0.143751 28.5 0.562499C26.1312 2.4625 21.8 2.4625 19.3937 0.468749C18.55 -0.231251 17.3313 -0.100001 16.475 0.581249C14.1 2.4625 9.79375 2.45625 7.4 0.474999C6.55625 -0.225001 5.31875 -0.0812514 4.45625 0.599999C3.4875 1.3625 2.20625 1.85625 0.85 2C0.35625 2.05 0 2.4875 0 2.98125V4.99375C0 5.5625 0.475 6.04375 1.04375 5.99375C2.84375 5.8375 4.55 5.28125 6.00625 4.375C9.5375 6.5375 14.5688 6.50625 18.0063 4.375C21.5375 6.5375 26.5688 6.50625 30.0063 4.375C31.4625 5.2625 33.1875 5.83125 34.95 5.9875C35.5188 6.0375 35.9938 5.55625 35.9938 4.9875V3.0125C36 2.5125 35.6375 2.05 35.1312 1.99375V1.99375Z" fill="black"/>
</svg>
