<svg width="157" height="156" viewBox="0 0 157 156" fill="none" xmlns="http://www.w3.org/2000/svg">
<path d="M76.1651 95.2156C57.3936 95.2154 38.7166 92.5593 20.6893 87.3261L7.78155 83.5778C6.80536 83.2942 5.91652 82.7688 5.19731 82.0504V82.0504C4.06521 80.9182 3.4292 79.3828 3.4292 77.7817C3.4292 76.1807 4.06521 74.6452 5.19731 73.5131V73.5131C5.91652 72.7947 6.80536 72.2693 7.78154 71.9857L20.6893 68.2374C38.7166 63.0042 57.3936 60.348 76.1651 60.3479V60.3479C91.2238 60.3475 106.234 62.0566 120.907 65.4426L149.481 72.0366C150.558 72.2862 151.543 72.8325 152.324 73.6137V73.6137C153.429 74.7194 154.05 76.2186 154.05 77.7817C154.05 79.3449 153.429 80.8441 152.324 81.9498V81.9498C151.543 82.7309 150.558 83.2773 149.481 83.5269L120.907 90.1209C106.234 93.5068 91.2238 95.216 76.1651 95.2156Z" fill="#E8594A"/>
<path d="M96.3888 84.0364C97.4184 83.3499 98.2626 82.4198 98.8466 81.3287C99.4305 80.2376 99.736 79.0192 99.7361 77.7817C99.736 76.5442 99.4305 75.3258 98.8466 74.2347C98.2626 73.1436 97.4184 72.2135 96.3888 71.527V71.527C93.3243 69.4844 89.7239 68.3944 86.0411 68.3943H68.8916C66.4019 68.3944 64.0143 69.3835 62.2538 71.1439C60.4933 72.9044 59.5043 75.292 59.5041 77.7817V77.7817C59.5043 80.2714 60.4933 82.659 62.2538 84.4195C64.0143 86.18 66.4019 87.169 68.8916 87.1692L86.0411 87.1692C89.7239 87.169 93.3243 86.079 96.3888 84.0364V84.0364Z" fill="#995023"/>
<path d="M74.1291 87.1692L74.1305 95.1794C74.809 95.1874 75.4863 95.2156 76.1649 95.2156C76.7522 95.2156 77.3369 95.1968 77.923 95.1901L77.9217 87.1692L74.1291 87.1692Z" fill="#CF453F"/>
<path d="M77.9217 68.3943L77.927 60.3694C77.341 60.3627 76.7563 60.3439 76.1689 60.3439C75.4903 60.3439 74.8131 60.3721 74.1345 60.3801L74.1332 68.3903L77.9217 68.3943Z" fill="#CF453F"/>
<path d="M140.402 75.884H129.673V79.6771H140.402V75.884Z" fill="#CF453F"/>
<path d="M110.896 72.4175L108.214 69.7354L105.532 72.4175L108.214 75.0996L110.896 72.4175Z" fill="#7D411D"/>
<path d="M112.237 81.8047L109.555 79.1226L106.873 81.8047L109.555 84.4868L112.237 81.8047Z" fill="#7D411D"/>
<path d="M21.0446 75.6549L21.0446 71.8624L42.9629 71.8624C45.1197 71.8681 47.2562 71.446 49.2487 70.6206C51.2413 69.7951 53.0503 68.5826 54.5712 67.0534L57.2533 69.7355C55.3812 71.6182 53.1542 73.1109 50.7012 74.127C48.2482 75.1431 45.618 75.6624 42.9629 75.6549L21.0446 75.6549Z" fill="#CF453F"/>
<path d="M21.0443 83.7011L21.0443 79.9086L42.9626 79.9086C45.6177 79.9012 48.2479 80.4205 50.7009 81.4366C53.1539 82.4527 55.3809 83.9453 57.253 85.8281L54.5709 88.5102C53.05 86.9809 51.241 85.7685 49.2484 84.943C47.2559 84.1175 45.1194 83.6954 42.9626 83.7011L21.0443 83.7011Z" fill="#CF453F"/>
<path d="M17.0215 77.7817L14.3394 75.0996L11.6572 77.7817L14.3394 80.4639L17.0215 77.7817Z" fill="#7D411D"/>
<path d="M84.3044 68.3955H72.6842C70.5893 68.3955 68.8911 70.0937 68.8911 72.1886V83.3764C68.8911 85.4712 70.5893 87.1695 72.6842 87.1695H84.3044C86.3993 87.1695 88.0975 85.4712 88.0975 83.3764V72.1886C88.0975 70.0937 86.3993 68.3955 84.3044 68.3955Z" fill="#C9C9C9"/>
<path d="M68.8905 73.2435L61.6675 71.8515C60.8192 72.8801 60.2014 74.0787 59.8558 75.3664L68.8905 77.1058L68.8905 73.2435Z" fill="#663318"/>
<path d="M68.8907 78.6346L59.8734 80.2573C60.2277 81.5494 60.8577 82.7494 61.72 83.7749L68.884 82.4821L68.8907 78.6346Z" fill="#663318"/>
<path d="M84.3058 87.1693C85.3116 87.1692 86.2762 86.7696 86.9874 86.0584C87.6986 85.3472 88.0982 84.3826 88.0983 83.3768L88.0983 72.187C88.0982 71.1812 87.6986 70.2166 86.9874 69.5054C86.2762 68.7942 85.3116 68.3946 84.3058 68.3944H78.5982V87.1693H84.3058Z" fill="#A6A6A6"/>
</svg>
