<svg width="1254" height="205" viewBox="0 0 1254 205" fill="none" xmlns="http://www.w3.org/2000/svg">
<rect width="1254" height="187" fill="#A3D3FF"/>
<path d="M1038.89 190.109H1010.56C1009.67 190.109 1009.14 189.111 1009.65 188.378L1020.16 173.003L1023.81 167.67C1024.25 167.027 1025.2 167.027 1025.64 167.67L1031.95 176.893L1039.81 188.378C1040.31 189.111 1039.78 190.109 1038.89 190.109V190.109Z" fill="#3AD391"/>
<path d="M1038.89 190.108H1035.91C1036.8 190.108 1037.32 189.111 1036.82 188.378L1023.23 168.517L1023.81 167.67C1024.25 167.027 1025.2 167.027 1025.64 167.67L1039.81 188.378C1040.31 189.111 1039.78 190.108 1038.89 190.108Z" fill="#2DB37A"/>
<path d="M1031.95 176.893C1030.04 176.955 1028.98 176.418 1028.22 175.814C1027.1 174.92 1026.62 173.879 1024.99 174.417C1022.3 175.309 1020.88 174.166 1020.16 173.003L1023.23 168.517L1023.81 167.671C1024.25 167.028 1025.2 167.028 1025.64 167.671L1031.95 176.893Z" fill="#FFDFC8"/>
<path d="M1031.95 176.893C1030.04 176.955 1028.98 176.418 1028.22 175.814L1023.23 168.517L1023.81 167.671C1024.25 167.027 1025.2 167.027 1025.64 167.671L1031.95 176.893Z" fill="#FECBA9"/>
<path d="M1024.96 190.109H988.108C987.218 190.109 986.693 189.111 987.195 188.378L999.09 170.99L1005.62 161.447C1006.06 160.805 1007.01 160.805 1007.45 161.447L1015.31 172.938L1025.87 188.378C1026.37 189.111 1025.84 190.109 1024.96 190.109V190.109Z" fill="#CBD359"/>
<path d="M1024.96 190.108H1021.97C1022.86 190.108 1023.38 189.111 1022.88 188.378L1005.04 162.294L1005.62 161.447C1006.06 160.805 1007.01 160.805 1007.44 161.447L1025.87 188.378C1026.37 189.111 1025.85 190.108 1024.96 190.108V190.108Z" fill="#BEC121"/>
<path d="M1015.31 172.939C1014.49 173.698 1013.77 174.023 1013.09 174.066C1010.23 174.247 1008.22 169.397 1004.29 171.195C1001.68 172.39 1000.07 171.873 999.09 170.99L1005.04 162.295V162.294L1005.62 161.447C1006.06 160.805 1007.01 160.805 1007.45 161.447L1015.31 172.939Z" fill="#FFEC9C"/>
<path d="M1015.31 172.939C1014.49 173.698 1013.77 174.023 1013.09 174.066L1005.04 162.295V162.294L1005.62 161.447C1006.06 160.805 1007.01 160.805 1007.45 161.447L1015.31 172.939Z" fill="#FFDF4A"/>
<path d="M997.145 185.762C996.836 185.762 996.541 185.582 996.41 185.28L996.199 184.792C996.024 184.386 996.211 183.915 996.616 183.74C997.022 183.565 997.492 183.752 997.667 184.157L997.879 184.645C998.054 185.05 997.867 185.521 997.462 185.697C997.359 185.741 997.251 185.762 997.145 185.762Z" fill="#E6F073"/>
<path d="M999.506 185.759C999.398 185.759 999.289 185.737 999.184 185.691C998.78 185.513 998.597 185.04 998.774 184.636L998.99 184.147C999.168 183.744 999.64 183.56 1000.04 183.739C1000.45 183.917 1000.63 184.389 1000.45 184.793L1000.24 185.282C1000.11 185.581 999.813 185.759 999.506 185.759Z" fill="#E6F073"/>
<path d="M1023.54 180.094C1023.23 180.094 1022.94 179.913 1022.81 179.612L1022.6 179.123C1022.42 178.718 1022.61 178.247 1023.01 178.072C1023.42 177.897 1023.89 178.083 1024.07 178.488L1024.28 178.977C1024.45 179.382 1024.27 179.853 1023.86 180.028C1023.76 180.073 1023.65 180.094 1023.54 180.094V180.094Z" fill="#2DB37A"/>
<path d="M1025.9 180.091C1025.8 180.091 1025.69 180.069 1025.58 180.023C1025.18 179.844 1024.99 179.372 1025.17 178.968L1025.39 178.48C1025.57 178.075 1026.04 177.892 1026.44 178.07C1026.85 178.248 1027.03 178.721 1026.85 179.125L1026.64 179.613C1026.5 179.913 1026.21 180.091 1025.9 180.091V180.091Z" fill="#2DB37A"/>
<path d="M1242.52 190.108H1168.52C1166.2 190.108 1164.83 187.504 1166.14 185.589L1193.61 145.435L1203.14 131.508C1204.28 129.831 1206.76 129.831 1207.9 131.508L1224.38 155.594L1244.9 185.589C1246.22 187.504 1244.84 190.108 1242.52 190.108V190.108Z" fill="#3AD391"/>
<path d="M1242.52 190.107H1234.72C1237.04 190.107 1238.42 187.504 1237.1 185.589L1201.62 133.722L1203.14 131.51C1204.29 129.831 1206.76 129.831 1207.91 131.51L1244.9 185.589C1246.21 187.504 1244.84 190.107 1242.52 190.107Z" fill="#2DB37A"/>
<path d="M1224.38 155.595C1219.4 155.757 1216.64 154.355 1214.66 152.777C1211.71 150.443 1210.46 147.725 1206.23 149.128C1199.19 151.46 1195.49 148.473 1193.61 145.435L1201.62 133.722L1203.14 131.511C1204.29 129.832 1206.76 129.832 1207.9 131.511L1224.38 155.595Z" fill="#FFDFC8"/>
<path d="M1224.38 155.595C1219.4 155.757 1216.64 154.355 1214.66 152.777L1201.62 133.722L1203.14 131.511C1204.29 129.831 1206.76 129.831 1207.9 131.511L1224.38 155.595Z" fill="#FECBA9"/>
<path d="M1206.12 190.109H1109.89C1107.57 190.109 1106.2 187.504 1107.51 185.589L1138.57 140.18L1155.62 115.257C1156.77 113.581 1159.25 113.581 1160.39 115.257L1180.92 145.267L1208.51 185.589C1209.82 187.504 1208.45 190.109 1206.12 190.109V190.109Z" fill="#CBD359"/>
<path d="M1206.12 190.107H1198.32C1200.65 190.107 1202.02 187.504 1200.71 185.589L1154.11 117.469L1155.62 115.257C1156.77 113.581 1159.25 113.581 1160.39 115.257L1208.51 185.589C1209.82 187.504 1208.45 190.107 1206.12 190.107V190.107Z" fill="#BEC121"/>
<path d="M1180.92 145.269C1178.8 147.251 1176.91 148.101 1175.14 148.212C1167.65 148.686 1162.42 136.019 1152.16 140.715C1145.34 143.837 1141.12 142.486 1138.57 140.181L1154.11 117.471V117.469L1155.62 115.258C1156.77 113.581 1159.25 113.581 1160.39 115.258L1180.92 145.269Z" fill="#FFEC9C"/>
<path d="M1180.92 145.269C1178.8 147.251 1176.91 148.101 1175.14 148.212L1154.11 117.471V117.469L1155.62 115.258C1156.77 113.581 1159.25 113.581 1160.39 115.258L1180.92 145.269Z" fill="#FFDF4A"/>
<path d="M1133.49 178.759C1132.69 178.759 1131.92 178.288 1131.58 177.499L1131.02 176.224C1130.57 175.165 1131.05 173.935 1132.11 173.477C1133.17 173.019 1134.4 173.507 1134.86 174.565L1135.41 175.84C1135.87 176.899 1135.38 178.128 1134.32 178.586C1134.05 178.703 1133.77 178.759 1133.49 178.759Z" fill="#E6F073"/>
<path d="M1139.66 178.749C1139.38 178.749 1139.09 178.692 1138.82 178.572C1137.76 178.106 1137.28 176.873 1137.75 175.818L1138.31 174.541C1138.78 173.486 1140.01 173.008 1141.07 173.473C1142.12 173.938 1142.6 175.171 1142.14 176.227L1141.57 177.503C1141.23 178.284 1140.46 178.749 1139.66 178.749Z" fill="#E6F073"/>
<path d="M1202.43 163.955C1201.63 163.955 1200.86 163.483 1200.51 162.696L1199.96 161.42C1199.51 160.361 1199.99 159.132 1201.05 158.674C1202.11 158.217 1203.34 158.704 1203.8 159.762L1204.35 161.037C1204.81 162.096 1204.32 163.325 1203.26 163.783C1202.99 163.901 1202.71 163.955 1202.43 163.955V163.955Z" fill="#2DB37A"/>
<path d="M1208.6 163.947C1208.32 163.947 1208.03 163.89 1207.76 163.769C1206.7 163.303 1206.22 162.071 1206.69 161.015L1207.25 159.739C1207.72 158.683 1208.95 158.203 1210.01 158.67C1211.06 159.135 1211.54 160.368 1211.07 161.423L1210.51 162.7C1210.17 163.481 1209.4 163.947 1208.6 163.947V163.947Z" fill="#2DB37A"/>
<path d="M107.411 190.109H66.782C65.507 190.109 64.7532 188.679 65.4734 187.627L80.5554 165.579L85.7866 157.932C86.4169 157.011 87.776 157.011 88.4046 157.932L97.4529 171.157L108.72 187.627C109.44 188.679 108.686 190.109 107.411 190.109V190.109Z" fill="#3AD391"/>
<path d="M107.41 190.108H103.129C104.404 190.108 105.158 188.679 104.438 187.627L84.9553 159.148L85.7868 157.933C86.4182 157.011 87.7756 157.011 88.4053 157.933L108.72 187.627C109.441 188.679 108.686 190.108 107.41 190.108Z" fill="#2DB37A"/>
<path d="M97.4532 171.158C94.7192 171.247 93.2036 170.477 92.1117 169.61C90.4969 168.329 89.8104 166.836 87.4829 167.607C83.6201 168.887 81.5895 167.247 80.5557 165.579L84.9554 159.148L85.7869 157.934C86.4189 157.012 87.7763 157.012 88.4049 157.934L97.4532 171.158Z" fill="#FFDFC8"/>
<path d="M97.453 171.158C94.7191 171.247 93.2034 170.477 92.1116 169.61L84.9553 159.148L85.7868 157.934C86.4188 157.011 87.7762 157.011 88.4047 157.934L97.453 171.158Z" fill="#FECBA9"/>
<path d="M87.4266 190.109H34.5888C33.3131 190.109 32.5594 188.679 33.2801 187.627L50.3365 162.694L59.6979 149.009C60.3276 148.089 61.6873 148.089 62.3175 149.009L73.5906 165.487L88.7353 187.627C89.4555 188.679 88.7017 190.109 87.4266 190.109V190.109Z" fill="#CBD359"/>
<path d="M87.4266 190.108H83.144C84.4208 190.108 85.1745 188.679 84.4544 187.627L58.8669 150.224L59.6978 149.009C60.3275 148.089 61.6872 148.089 62.3169 149.009L88.7353 187.627C89.4554 188.679 88.7022 190.108 87.4266 190.108V190.108Z" fill="#BEC121"/>
<path d="M73.5906 165.488C72.4263 166.576 71.3867 167.043 70.4143 167.104C66.3039 167.364 63.4308 160.409 57.7983 162.987C54.052 164.701 51.7367 163.96 50.3364 162.694L58.8658 150.225V150.224L59.6978 149.009C60.3275 148.089 61.6872 148.089 62.3175 149.009L73.5906 165.488Z" fill="#FFEC9C"/>
<path d="M73.5906 165.488C72.4263 166.576 71.3866 167.043 70.4143 167.104L58.8657 150.225V150.224L59.6978 149.009C60.3275 148.089 61.6872 148.089 62.3175 149.009L73.5906 165.488Z" fill="#FFDF4A"/>
<path d="M47.5475 183.876C47.1039 183.876 46.6812 183.618 46.4939 183.185L46.1913 182.485C45.9402 181.903 46.2075 181.228 46.7885 180.977C47.3712 180.725 48.0456 180.993 48.2966 181.574L48.5993 182.274C48.851 182.855 48.5831 183.53 48.0021 183.782C47.8536 183.846 47.6994 183.876 47.5475 183.876Z" fill="#E6F073"/>
<path d="M50.9331 183.871C50.7788 183.871 50.6217 183.84 50.4709 183.774C49.8917 183.518 49.629 182.841 49.8841 182.262L50.1932 181.561C50.4489 180.981 51.1256 180.719 51.7054 180.974C52.2847 181.23 52.5473 181.907 52.2922 182.487L51.9831 183.187C51.7935 183.616 51.3737 183.871 50.9331 183.871Z" fill="#E6F073"/>
<path d="M85.4005 175.748C84.9569 175.748 84.5342 175.489 84.347 175.057L84.0443 174.356C83.7932 173.775 84.0605 173.1 84.6421 172.849C85.2237 172.598 85.8986 172.865 86.1497 173.446L86.4523 174.146C86.704 174.727 86.4367 175.402 85.8551 175.654C85.7067 175.718 85.5524 175.748 85.4005 175.748V175.748Z" fill="#2DB37A"/>
<path d="M88.7863 175.744C88.6321 175.744 88.475 175.712 88.3242 175.646C87.745 175.39 87.4823 174.713 87.7374 174.134L88.0465 173.433C88.3016 172.853 88.9788 172.59 89.5587 172.846C90.1379 173.101 90.4006 173.779 90.1455 174.358L89.8364 175.059C89.6474 175.488 89.227 175.744 88.7863 175.744V175.744Z" fill="#2DB37A"/>
<path d="M614.059 190.109H590.003C589.248 190.109 588.801 189.262 589.228 188.639L598.158 175.585L601.255 171.057C601.628 170.511 602.433 170.511 602.805 171.057L608.163 178.887L614.834 188.639C615.261 189.262 614.814 190.109 614.059 190.109V190.109Z" fill="#3AD391"/>
<path d="M614.059 190.108H611.524C612.279 190.108 612.725 189.262 612.299 188.639L600.763 171.777L601.255 171.057C601.629 170.511 602.433 170.511 602.806 171.057L614.834 188.639C615.261 189.262 614.814 190.108 614.059 190.108Z" fill="#2DB37A"/>
<path d="M608.163 178.888C606.544 178.94 605.647 178.485 605 177.971C604.044 177.213 603.638 176.329 602.26 176.785C599.972 177.543 598.77 176.572 598.158 175.585L600.763 171.777L601.255 171.058C601.63 170.512 602.433 170.512 602.806 171.058L608.163 178.888Z" fill="#FFDFC8"/>
<path d="M608.163 178.888C606.544 178.94 605.647 178.485 605 177.971L600.763 171.777L601.255 171.058C601.63 170.511 602.433 170.511 602.805 171.058L608.163 178.888Z" fill="#FECBA9"/>
<path d="M602.226 190.109H570.941C570.185 190.109 569.739 189.262 570.166 188.639L580.265 173.876L585.808 165.773C586.181 165.228 586.986 165.228 587.359 165.773L594.034 175.53L603.001 188.639C603.428 189.262 602.981 190.109 602.226 190.109V190.109Z" fill="#CBD359"/>
<path d="M602.226 190.108H599.691C600.447 190.108 600.893 189.262 600.467 188.639L585.316 166.492L585.808 165.773C586.181 165.228 586.986 165.228 587.359 165.773L603.001 188.639C603.428 189.262 602.982 190.108 602.226 190.108V190.108Z" fill="#BEC121"/>
<path d="M594.034 175.53C593.345 176.175 592.729 176.451 592.153 176.487C589.719 176.641 588.018 172.523 584.683 174.05C582.465 175.065 581.094 174.626 580.265 173.876L585.315 166.493V166.492L585.808 165.774C586.181 165.228 586.986 165.228 587.359 165.774L594.034 175.53Z" fill="#FFEC9C"/>
<path d="M594.034 175.53C593.344 176.175 592.729 176.451 592.153 176.487L585.315 166.493V166.492L585.808 165.774C586.181 165.228 586.986 165.228 587.359 165.774L594.034 175.53Z" fill="#FFDF4A"/>
<path d="M578.614 186.419C578.351 186.419 578.101 186.265 577.99 186.009L577.811 185.595C577.662 185.25 577.82 184.85 578.164 184.702C578.509 184.553 578.909 184.711 579.057 185.055L579.236 185.47C579.385 185.814 579.227 186.214 578.883 186.363C578.795 186.4 578.704 186.419 578.614 186.419Z" fill="#E6F073"/>
<path d="M580.618 186.415C580.527 186.415 580.434 186.397 580.345 186.358C580.002 186.206 579.846 185.805 579.997 185.462L580.18 185.047C580.331 184.704 580.732 184.549 581.075 184.7C581.418 184.851 581.574 185.252 581.423 185.596L581.24 186.01C581.128 186.264 580.879 186.415 580.618 186.415Z" fill="#E6F073"/>
<path d="M601.027 181.606C600.764 181.606 600.514 181.452 600.403 181.196L600.224 180.782C600.075 180.437 600.233 180.038 600.578 179.889C600.922 179.74 601.322 179.898 601.47 180.242L601.65 180.657C601.799 181.001 601.64 181.401 601.296 181.55C601.208 181.588 601.117 181.606 601.027 181.606V181.606Z" fill="#2DB37A"/>
<path d="M603.031 181.603C602.94 181.603 602.847 181.585 602.758 181.545C602.415 181.394 602.259 180.993 602.41 180.65L602.593 180.235C602.744 179.892 603.145 179.736 603.489 179.887C603.832 180.039 603.987 180.44 603.836 180.783L603.653 181.198C603.541 181.452 603.292 181.603 603.031 181.603V181.603Z" fill="#2DB37A"/>
<path d="M500.609 190.109H388.345C384.822 190.109 382.739 186.158 384.729 183.251L426.403 122.33L440.858 101.199C442.599 98.655 446.355 98.655 448.092 101.199L473.094 137.743L504.227 183.251C506.217 186.158 504.132 190.109 500.609 190.109V190.109Z" fill="#3AD391"/>
<path d="M500.607 190.107H488.778C492.301 190.107 494.384 186.158 492.394 183.251L438.561 104.559L440.858 101.203C442.603 98.6551 446.354 98.6551 448.094 101.203L504.227 183.251C506.217 186.158 504.131 190.107 500.607 190.107Z" fill="#2DB37A"/>
<path d="M473.094 137.745C465.54 137.99 461.352 135.864 458.335 133.469C453.873 129.928 451.976 125.804 445.545 127.933C434.871 131.471 429.261 126.94 426.404 122.33L438.561 104.559L440.859 101.204C442.605 98.6566 446.356 98.6566 448.093 101.204L473.094 137.745Z" fill="#FFDFC8"/>
<path d="M473.094 137.745C465.54 137.99 461.352 135.864 458.335 133.469L438.561 104.559L440.858 101.204C442.605 98.655 446.355 98.655 448.092 101.204L473.094 137.745Z" fill="#FECBA9"/>
<path d="M445.389 190.109H299.39C295.865 190.109 293.782 186.158 295.774 183.251L342.903 114.356L368.77 76.5435C370.51 74.0008 374.268 74.0008 376.009 76.5435L407.158 122.076L449.006 183.251C450.995 186.158 448.913 190.109 445.389 190.109V190.109Z" fill="#CBD359"/>
<path d="M445.39 190.107H433.556C437.084 190.107 439.167 186.158 437.177 183.251L366.475 79.9L368.771 76.5435C370.51 74.0008 374.268 74.0008 376.008 76.5435L449.006 183.251C450.996 186.158 448.914 190.107 445.39 190.107V190.107Z" fill="#BEC121"/>
<path d="M407.158 122.077C403.941 125.084 401.069 126.374 398.382 126.542C387.024 127.262 379.085 108.044 363.522 115.169C353.17 119.905 346.773 117.855 342.903 114.358L366.471 79.9032V79.9L368.77 76.545C370.51 74.0008 374.267 74.0008 376.009 76.545L407.158 122.077Z" fill="#FFEC9C"/>
<path d="M407.158 122.077C403.941 125.084 401.068 126.374 398.382 126.542L366.471 79.9032V79.9L368.77 76.545C370.51 74.0008 374.267 74.0008 376.009 76.545L407.158 122.077Z" fill="#FFDF4A"/>
<path d="M335.197 172.888C333.971 172.888 332.803 172.174 332.286 170.977L331.45 169.043C330.756 167.436 331.495 165.57 333.1 164.876C334.71 164.18 336.573 164.921 337.267 166.526L338.103 168.46C338.799 170.067 338.059 171.932 336.453 172.627C336.043 172.803 335.617 172.888 335.197 172.888Z" fill="#E6F073"/>
<path d="M344.552 172.874C344.126 172.874 343.691 172.787 343.275 172.605C341.674 171.898 340.949 170.027 341.654 168.426L342.507 166.489C343.214 164.889 345.084 164.163 346.686 164.869C348.287 165.574 349.012 167.446 348.307 169.048L347.453 170.983C346.929 172.169 345.769 172.874 344.552 172.874Z" fill="#E6F073"/>
<path d="M439.791 150.429C438.565 150.429 437.397 149.713 436.88 148.518L436.043 146.582C435.35 144.975 436.088 143.11 437.695 142.416C439.302 141.723 441.167 142.461 441.861 144.067L442.697 146.001C443.393 147.608 442.654 149.472 441.047 150.168C440.637 150.346 440.211 150.429 439.791 150.429V150.429Z" fill="#2DB37A"/>
<path d="M449.147 150.416C448.72 150.416 448.286 150.33 447.87 150.145C446.269 149.439 445.543 147.569 446.248 145.967L447.102 144.032C447.807 142.429 449.678 141.702 451.281 142.41C452.881 143.115 453.607 144.986 452.902 146.587L452.048 148.524C451.526 149.71 450.364 150.416 449.147 150.416V150.416Z" fill="#2DB37A"/>
<rect y="187" width="1254" height="18" fill="#386D9D"/>
</svg>
