<svg width="319" height="52" viewBox="0 0 319 52" fill="none" xmlns="http://www.w3.org/2000/svg">
<rect width="318.088" height="47.4341" fill="#A3D3FF"/>
<path d="M263.524 49.2226H256.337C256.111 49.2226 255.978 48.9697 256.105 48.7836L258.773 44.8835L259.698 43.5308C259.81 43.3679 260.05 43.3679 260.162 43.5308L261.762 45.8702L263.755 48.7836C263.883 48.9697 263.749 49.2226 263.524 49.2226Z" fill="#3AD391"/>
<path d="M263.523 49.2225H262.766C262.992 49.2225 263.125 48.9697 262.998 48.7836L259.551 43.7459L259.698 43.531C259.81 43.3679 260.05 43.3679 260.162 43.531L263.755 48.7836C263.883 48.9697 263.749 49.2225 263.523 49.2225Z" fill="#2DB37A"/>
<path d="M261.762 45.8704C261.279 45.8861 261.011 45.75 260.817 45.5966C260.532 45.3699 260.41 45.1059 259.999 45.2423C259.315 45.4687 258.956 45.1787 258.773 44.8836L259.551 43.7459L259.699 43.5311C259.81 43.368 260.05 43.368 260.162 43.5311L261.762 45.8704Z" fill="#FFDFC8"/>
<path d="M261.762 45.8704C261.279 45.8861 261.01 45.75 260.817 45.5966L259.551 43.7459L259.698 43.5311C259.81 43.3679 260.05 43.3679 260.162 43.5311L261.762 45.8704Z" fill="#FECBA9"/>
<path d="M259.989 49.2227H250.642C250.416 49.2227 250.283 48.9697 250.411 48.7837L253.428 44.3731L255.084 41.9524C255.195 41.7896 255.436 41.7896 255.547 41.9524L257.541 44.8673L260.22 48.7837C260.348 48.9697 260.214 49.2227 259.989 49.2227Z" fill="#CBD359"/>
<path d="M259.989 49.2225H259.231C259.457 49.2225 259.59 48.9697 259.463 48.7836L254.937 42.1672L255.084 41.9523C255.195 41.7896 255.435 41.7896 255.547 41.9523L260.22 48.7836C260.347 48.9697 260.214 49.2225 259.989 49.2225Z" fill="#BEC121"/>
<path d="M257.541 44.8674C257.335 45.0599 257.151 45.1424 256.979 45.1532C256.252 45.1993 255.744 43.969 254.747 44.4251C254.085 44.7283 253.675 44.5971 253.427 44.3732L254.936 42.1674V42.1672L255.083 41.9525C255.195 41.7896 255.435 41.7896 255.547 41.9525L257.541 44.8674Z" fill="#FFEC9C"/>
<path d="M257.541 44.8674C257.335 45.0599 257.151 45.1424 256.979 45.1532L254.936 42.1674V42.1672L255.083 41.9525C255.195 41.7896 255.435 41.7896 255.547 41.9525L257.541 44.8674Z" fill="#FFDF4A"/>
<path d="M252.934 48.1202C252.856 48.1202 252.781 48.0744 252.748 47.9978L252.694 47.874C252.65 47.7712 252.697 47.6517 252.8 47.6072C252.903 47.5627 253.022 47.6101 253.067 47.7129L253.12 47.8367C253.165 47.9396 253.117 48.059 253.015 48.1035C252.988 48.1148 252.961 48.1202 252.934 48.1202Z" fill="#E6F073"/>
<path d="M253.533 48.1193C253.506 48.1193 253.478 48.1137 253.451 48.1021C253.349 48.0568 253.302 47.937 253.348 47.8346L253.402 47.7105C253.447 47.6081 253.567 47.5616 253.67 47.6069C253.772 47.652 253.819 47.7718 253.774 47.8744L253.719 47.9983C253.685 48.0742 253.611 48.1193 253.533 48.1193Z" fill="#E6F073"/>
<path d="M259.63 46.6824C259.552 46.6824 259.477 46.6365 259.444 46.56L259.39 46.4361C259.346 46.3332 259.393 46.2138 259.496 46.1694C259.599 46.125 259.718 46.1723 259.763 46.2751L259.816 46.3989C259.861 46.5018 259.813 46.6211 259.711 46.6657C259.684 46.677 259.657 46.6824 259.63 46.6824Z" fill="#2DB37A"/>
<path d="M260.229 46.6816C260.202 46.6816 260.174 46.676 260.147 46.6642C260.045 46.619 259.998 46.4993 260.043 46.3967L260.098 46.2728C260.143 46.1703 260.263 46.1237 260.366 46.169C260.468 46.2142 260.515 46.334 260.469 46.4364L260.415 46.5604C260.381 46.6363 260.307 46.6816 260.229 46.6816Z" fill="#2DB37A"/>
<path d="M315.176 49.2227H296.406C295.817 49.2227 295.469 48.5621 295.802 48.0762L302.769 37.891L305.186 34.3581C305.477 33.9327 306.105 33.9327 306.395 34.3581L310.575 40.4678L315.78 48.0762C316.113 48.5621 315.765 49.2227 315.176 49.2227Z" fill="#3AD391"/>
<path d="M315.175 49.2224H313.197C313.786 49.2224 314.135 48.5621 313.802 48.0762L304.802 34.9198L305.186 34.3586C305.478 33.9327 306.105 33.9327 306.396 34.3586L315.78 48.0762C316.113 48.5621 315.764 49.2224 315.175 49.2224Z" fill="#2DB37A"/>
<path d="M310.575 40.4681C309.312 40.5091 308.612 40.1536 308.108 39.7531C307.362 39.1612 307.045 38.4717 305.969 38.8277C304.185 39.4191 303.247 38.6616 302.769 37.8909L304.802 34.9198L305.186 34.3589C305.478 33.933 306.105 33.933 306.395 34.3589L310.575 40.4681Z" fill="#FFDFC8"/>
<path d="M310.575 40.4681C309.312 40.509 308.612 40.1536 308.108 39.7531L304.802 34.9198L305.186 34.3589C305.478 33.9327 306.105 33.9327 306.395 34.3589L310.575 40.4681Z" fill="#FECBA9"/>
<path d="M305.943 49.2227H281.534C280.945 49.2227 280.596 48.5621 280.929 48.0762L288.809 36.5578L293.134 30.2359C293.425 29.8108 294.053 29.8108 294.344 30.2359L299.552 37.8483L306.548 48.0762C306.881 48.5621 306.532 49.2227 305.943 49.2227Z" fill="#CBD359"/>
<path d="M305.943 49.2224H303.965C304.555 49.2224 304.903 48.5621 304.57 48.0762L292.75 30.7971L293.134 30.2359C293.425 29.8108 294.053 29.8108 294.344 30.2359L306.548 48.0762C306.881 48.5621 306.533 49.2224 305.943 49.2224Z" fill="#BEC121"/>
<path d="M299.552 37.8486C299.014 38.3514 298.533 38.567 298.084 38.5952C296.185 38.7154 294.858 35.5024 292.256 36.6936C290.525 37.4854 289.456 37.1428 288.809 36.5581L292.749 30.7976V30.7971L293.134 30.2362C293.424 29.8108 294.053 29.8108 294.344 30.2362L299.552 37.8486Z" fill="#FFEC9C"/>
<path d="M299.552 37.8486C299.014 38.3514 298.533 38.567 298.084 38.5952L292.749 30.7976V30.7971L293.134 30.2362C293.424 29.8108 294.053 29.8108 294.344 30.2362L299.552 37.8486Z" fill="#FFDF4A"/>
<path d="M287.52 46.3436C287.316 46.3436 287.12 46.2242 287.034 46.0241L286.894 45.7008C286.778 45.4321 286.901 45.12 287.17 45.0041C287.439 44.8878 287.751 45.0116 287.867 45.28L288.006 45.6033C288.123 45.8719 287.999 46.1837 287.73 46.3C287.662 46.3294 287.591 46.3436 287.52 46.3436Z" fill="#E6F073"/>
<path d="M289.084 46.3413C289.013 46.3413 288.941 46.3268 288.871 46.2963C288.603 46.1781 288.482 45.8653 288.6 45.5977L288.743 45.2738C288.861 45.0062 289.173 44.8849 289.441 45.003C289.709 45.1209 289.83 45.4337 289.712 45.7016L289.57 46.0252C289.482 46.2234 289.288 46.3413 289.084 46.3413Z" fill="#E6F073"/>
<path d="M305.007 42.5887C304.802 42.5887 304.607 42.469 304.521 42.2692L304.381 41.9456C304.265 41.6769 304.388 41.3651 304.657 41.2491C304.926 41.1332 305.237 41.2566 305.353 41.525L305.493 41.8484C305.61 42.117 305.486 42.4288 305.217 42.5451C305.149 42.5748 305.078 42.5887 305.007 42.5887Z" fill="#2DB37A"/>
<path d="M306.571 42.5866C306.5 42.5866 306.428 42.5721 306.358 42.5413C306.09 42.4232 305.969 42.1106 306.087 41.8427L306.23 41.5192C306.348 41.2513 306.66 41.1297 306.928 41.2481C307.196 41.3659 307.317 41.6788 307.199 41.9464L307.057 42.2703C306.969 42.4685 306.775 42.5866 306.571 42.5866Z" fill="#2DB37A"/>
<path d="M27.2455 49.2227H16.9397C16.6162 49.2227 16.425 48.86 16.6077 48.5932L20.4334 43.0006L21.7603 41.0608C21.9202 40.8272 22.265 40.8272 22.4244 41.0608L24.7196 44.4155L27.5776 48.5932C27.7603 48.86 27.569 49.2227 27.2455 49.2227Z" fill="#3AD391"/>
<path d="M27.2454 49.2225H26.1595C26.4829 49.2225 26.6741 48.86 26.4914 48.5932L21.5496 41.3692L21.7605 41.0611C21.9206 40.8272 22.265 40.8272 22.4247 41.0611L27.5778 48.5932C27.7604 48.86 27.5689 49.2225 27.2454 49.2225Z" fill="#2DB37A"/>
<path d="M24.7197 44.4157C24.0262 44.4382 23.6417 44.243 23.3648 44.0231C22.9552 43.6981 22.781 43.3195 22.1906 43.515C21.2108 43.8397 20.6957 43.4238 20.4335 43.0006L21.5495 41.3692L21.7604 41.0612C21.9207 40.8274 22.2651 40.8274 22.4245 41.0612L24.7197 44.4157Z" fill="#FFDFC8"/>
<path d="M24.7197 44.4157C24.0262 44.4382 23.6418 44.243 23.3648 44.0231L21.5496 41.3692L21.7605 41.0612C21.9208 40.8272 22.2651 40.8272 22.4245 41.0612L24.7197 44.4157Z" fill="#FECBA9"/>
<path d="M22.1765 49.2227H8.77373C8.45016 49.2227 8.25896 48.86 8.44177 48.5932L12.7683 42.2686L15.1429 38.7974C15.3026 38.564 15.6475 38.564 15.8074 38.7974L18.6669 42.9772L22.5085 48.5932C22.6911 48.86 22.4999 49.2227 22.1765 49.2227Z" fill="#CBD359"/>
<path d="M22.1764 49.2225H21.0901C21.4139 49.2225 21.6052 48.86 21.4225 48.5932L14.932 39.1055L15.1428 38.7974C15.3025 38.564 15.6474 38.564 15.8071 38.7974L22.5084 48.5932C22.691 48.86 22.5 49.2225 22.1764 49.2225Z" fill="#BEC121"/>
<path d="M18.6668 42.9774C18.3715 43.2534 18.1078 43.3718 17.8611 43.3873C16.8185 43.4533 16.0897 41.6891 14.661 42.3432C13.7107 42.7779 13.1234 42.5898 12.7682 42.2687L14.9317 39.1058V39.1055L15.1428 38.7975C15.3025 38.564 15.6474 38.564 15.8073 38.7975L18.6668 42.9774Z" fill="#FFEC9C"/>
<path d="M18.6667 42.9774C18.3714 43.2534 18.1077 43.3718 17.861 43.3873L14.9316 39.1058V39.1055L15.1427 38.7975C15.3024 38.564 15.6473 38.564 15.8072 38.7975L18.6667 42.9774Z" fill="#FFDF4A"/>
<path d="M12.0607 47.6418C11.9482 47.6418 11.841 47.5762 11.7935 47.4664L11.7167 47.2888C11.653 47.1413 11.7208 46.97 11.8682 46.9063C12.016 46.8425 12.187 46.9104 12.2507 47.0578L12.3275 47.2353C12.3913 47.3828 12.3234 47.554 12.176 47.6179C12.1384 47.634 12.0992 47.6418 12.0607 47.6418Z" fill="#E6F073"/>
<path d="M12.9195 47.6405C12.8803 47.6405 12.8405 47.6326 12.8022 47.6158C12.6553 47.551 12.5887 47.3792 12.6534 47.2322L12.7318 47.0544C12.7967 46.9075 12.9683 46.8409 13.1154 46.9057C13.2623 46.9704 13.3289 47.1422 13.2642 47.2893L13.1858 47.467C13.1377 47.5758 13.0312 47.6405 12.9195 47.6405Z" fill="#E6F073"/>
<path d="M21.6625 45.5801C21.55 45.5801 21.4428 45.5143 21.3953 45.4046L21.3185 45.2269C21.2548 45.0794 21.3226 44.9082 21.4701 44.8445C21.6176 44.7808 21.7888 44.8486 21.8525 44.996L21.9293 45.1735C21.9931 45.3211 21.9253 45.4923 21.7778 45.5561C21.7402 45.5724 21.701 45.5801 21.6625 45.5801Z" fill="#2DB37A"/>
<path d="M22.5213 45.5789C22.4822 45.5789 22.4423 45.571 22.4041 45.554C22.2571 45.4892 22.1905 45.3175 22.2552 45.1705L22.3336 44.9928C22.3983 44.8457 22.5701 44.7789 22.7172 44.8439C22.8641 44.9087 22.9307 45.0805 22.866 45.2274L22.7876 45.4052C22.7397 45.514 22.6331 45.5789 22.5213 45.5789Z" fill="#2DB37A"/>
<path d="M155.761 49.2227H149.659C149.468 49.2227 149.354 49.0079 149.463 48.85L151.728 45.5386L152.513 44.39C152.608 44.2517 152.812 44.2517 152.907 44.39L154.266 46.3764L155.958 48.85C156.066 49.0079 155.953 49.2227 155.761 49.2227Z" fill="#3AD391"/>
<path d="M155.761 49.2226H155.118C155.31 49.2226 155.423 49.0079 155.315 48.85L152.389 44.5726L152.513 44.3902C152.608 44.2517 152.812 44.2517 152.907 44.3902L155.958 48.85C156.066 49.0079 155.953 49.2226 155.761 49.2226Z" fill="#2DB37A"/>
<path d="M154.266 46.3764C153.855 46.3898 153.627 46.2742 153.463 46.144C153.221 45.9515 153.118 45.7274 152.768 45.8431C152.188 46.0354 151.883 45.7891 151.728 45.5386L152.389 44.5726L152.513 44.3903C152.608 44.2518 152.812 44.2518 152.907 44.3903L154.266 46.3764Z" fill="#FFDFC8"/>
<path d="M154.266 46.3764C153.855 46.3898 153.627 46.2742 153.463 46.144L152.389 44.5726L152.513 44.3903C152.608 44.2517 152.812 44.2517 152.907 44.3903L154.266 46.3764Z" fill="#FECBA9"/>
<path d="M152.76 49.2227H144.824C144.632 49.2227 144.519 49.0079 144.627 48.8499L147.189 45.1051L148.595 43.0498C148.69 42.9116 148.894 42.9116 148.989 43.0498L150.682 45.5247L152.956 48.8499C153.065 49.0079 152.951 49.2227 152.76 49.2227Z" fill="#CBD359"/>
<path d="M152.76 49.2226H152.117C152.308 49.2226 152.422 49.0079 152.313 48.85L148.47 43.2323L148.595 43.0498C148.69 42.9116 148.894 42.9116 148.989 43.0498L152.956 48.85C153.065 49.0079 152.951 49.2226 152.76 49.2226Z" fill="#BEC121"/>
<path d="M150.682 45.5248C150.507 45.6883 150.351 45.7584 150.205 45.7675C149.587 45.8066 149.156 44.762 148.31 45.1493C147.747 45.4067 147.399 45.2953 147.189 45.1052L148.47 43.2324V43.2322L148.595 43.0499C148.69 42.9116 148.894 42.9116 148.989 43.0499L150.682 45.5248Z" fill="#FFEC9C"/>
<path d="M150.682 45.5248C150.507 45.6883 150.351 45.7584 150.205 45.7675L148.47 43.2324V43.2322L148.595 43.0499C148.69 42.9116 148.894 42.9116 148.989 43.0499L150.682 45.5248Z" fill="#FFDF4A"/>
<path d="M146.77 48.2867C146.703 48.2867 146.64 48.2478 146.612 48.1828L146.566 48.0777C146.529 47.9903 146.569 47.8889 146.656 47.8512C146.744 47.8134 146.845 47.8536 146.883 47.9408L146.928 48.046C146.966 48.1333 146.926 48.2347 146.838 48.2725C146.816 48.2821 146.793 48.2867 146.77 48.2867Z" fill="#E6F073"/>
<path d="M147.279 48.2859C147.255 48.2859 147.232 48.2812 147.209 48.2713C147.122 48.2329 147.083 48.1312 147.121 48.0442L147.168 47.9389C147.206 47.8519 147.308 47.8124 147.395 47.8508C147.482 47.8891 147.521 47.9909 147.483 48.0779L147.436 48.1831C147.408 48.2476 147.345 48.2859 147.279 48.2859Z" fill="#E6F073"/>
<path d="M152.455 47.0659C152.389 47.0659 152.325 47.027 152.297 46.962L152.252 46.8568C152.214 46.7695 152.254 46.6681 152.342 46.6304C152.429 46.5927 152.53 46.6328 152.568 46.7201L152.613 46.8252C152.651 46.9125 152.611 47.0139 152.524 47.0517C152.501 47.0614 152.478 47.0659 152.455 47.0659Z" fill="#2DB37A"/>
<path d="M152.964 47.0652C152.941 47.0652 152.917 47.0605 152.895 47.0505C152.808 47.0121 152.768 46.9104 152.806 46.8234L152.853 46.7182C152.891 46.6311 152.993 46.5915 153.08 46.63C153.167 46.6683 153.206 46.7701 153.168 46.8571L153.122 46.9624C153.093 47.0268 153.03 47.0652 152.964 47.0652Z" fill="#2DB37A"/>
<path d="M183.896 49.2227H171.237C170.839 49.2227 170.605 48.7772 170.829 48.4494L175.528 41.5799L177.158 39.1971C177.355 38.9102 177.778 38.9102 177.974 39.1971L180.793 43.3179L184.304 48.4494C184.528 48.7772 184.293 49.2227 183.896 49.2227V49.2227Z" fill="#3AD391"/>
<path d="M183.896 49.2225H182.562C182.959 49.2225 183.194 48.7772 182.969 48.4494L176.899 39.576L177.158 39.1975C177.355 38.9102 177.778 38.9102 177.974 39.1975L184.304 48.4494C184.528 48.7772 184.293 49.2225 183.896 49.2225Z" fill="#2DB37A"/>
<path d="M180.793 43.3181C179.941 43.3457 179.469 43.106 179.129 42.8359C178.626 42.4366 178.412 41.9716 177.687 42.2117C176.483 42.6106 175.85 42.0997 175.528 41.5799L176.899 39.576L177.158 39.1977C177.355 38.9104 177.778 38.9104 177.974 39.1977L180.793 43.3181Z" fill="#FFDFC8"/>
<path d="M180.793 43.318C179.941 43.3457 179.469 43.1059 179.129 42.8359L176.899 39.576L177.158 39.1977C177.355 38.9102 177.778 38.9102 177.974 39.1977L180.793 43.318Z" fill="#FECBA9"/>
<path d="M177.669 49.2227H161.206C160.809 49.2227 160.574 48.7771 160.798 48.4494L166.113 40.6807L169.03 36.4169C169.226 36.1302 169.649 36.1302 169.846 36.4169L173.358 41.5512L178.077 48.4494C178.301 48.7771 178.066 49.2227 177.669 49.2227V49.2227Z" fill="#CBD359"/>
<path d="M177.669 49.2225H176.335C176.733 49.2225 176.967 48.7771 176.743 48.4494L168.771 36.7954L169.03 36.4169C169.226 36.1302 169.649 36.1302 169.846 36.4169L178.077 48.4494C178.301 48.7771 178.067 49.2225 177.669 49.2225V49.2225Z" fill="#BEC121"/>
<path d="M173.358 41.5513C172.995 41.8904 172.671 42.0359 172.368 42.0548C171.088 42.136 170.193 39.9689 168.438 40.7723C167.27 41.3064 166.549 41.0753 166.113 40.6809L168.77 36.7957V36.7954L169.029 36.4171C169.226 36.1302 169.649 36.1302 169.846 36.4171L173.358 41.5513Z" fill="#FFEC9C"/>
<path d="M173.358 41.5513C172.995 41.8904 172.671 42.0359 172.368 42.0548L168.77 36.7957V36.7954L169.029 36.4171C169.226 36.1302 169.649 36.1302 169.846 36.4171L173.358 41.5513Z" fill="#FFDF4A"/>
<path d="M165.244 47.2809C165.106 47.2809 164.974 47.2003 164.915 47.0653L164.821 46.8473C164.743 46.6661 164.826 46.4556 165.007 46.3774C165.189 46.299 165.399 46.3824 165.477 46.5635L165.571 46.7815C165.65 46.9627 165.566 47.173 165.385 47.2514C165.339 47.2713 165.291 47.2809 165.244 47.2809Z" fill="#E6F073"/>
<path d="M166.299 47.2793C166.251 47.2793 166.202 47.2695 166.155 47.2489C165.974 47.1693 165.892 46.9582 165.972 46.7778L166.068 46.5593C166.148 46.3789 166.359 46.297 166.539 46.3767C166.72 46.4562 166.802 46.6672 166.722 46.8479L166.626 47.0661C166.567 47.1998 166.436 47.2793 166.299 47.2793Z" fill="#E6F073"/>
<path d="M177.038 44.7484C176.9 44.7484 176.768 44.6676 176.71 44.5328L176.615 44.3146C176.537 44.1334 176.62 43.9231 176.802 43.8449C176.983 43.7666 177.193 43.8499 177.271 44.0309L177.366 44.249C177.444 44.4302 177.361 44.6405 177.18 44.7189C177.133 44.739 177.085 44.7484 177.038 44.7484V44.7484Z" fill="#2DB37A"/>
<path d="M178.093 44.7469C178.045 44.7469 177.996 44.7372 177.949 44.7164C177.768 44.6367 177.686 44.4259 177.766 44.2452L177.862 44.027C177.942 43.8463 178.153 43.7643 178.333 43.8441C178.514 43.9236 178.596 44.1346 178.516 44.3151L178.42 44.5335C178.361 44.6672 178.23 44.7469 178.093 44.7469V44.7469Z" fill="#2DB37A"/>
<path d="M46.7008 49.2227H28.4576C27.8851 49.2227 27.5466 48.5806 27.87 48.1084L34.6421 38.2086L36.9911 34.7747C37.2741 34.3613 37.8844 34.3613 38.1666 34.7747L42.2294 40.7132L47.2887 48.1084C47.6121 48.5806 47.2733 49.2227 46.7008 49.2227V49.2227Z" fill="#3AD391"/>
<path d="M46.7005 49.2224H44.7783C45.3508 49.2224 45.6893 48.5806 45.3659 48.1083L36.6179 35.3206L36.9913 34.7752C37.2748 34.3612 37.8843 34.3612 38.167 34.7752L47.2889 48.1083C47.6123 48.5806 47.2733 49.2224 46.7005 49.2224Z" fill="#2DB37A"/>
<path d="M42.2296 40.7135C41.0021 40.7533 40.3215 40.4078 39.8312 40.0186C39.1061 39.4432 38.7979 38.773 37.7528 39.119C36.0183 39.6939 35.1065 38.9576 34.6423 38.2086L36.6179 35.3207L36.9913 34.7755C37.2751 34.3615 37.8846 34.3615 38.1668 34.7755L42.2296 40.7135Z" fill="#FFDFC8"/>
<path d="M42.2296 40.7134C41.0021 40.7533 40.3215 40.4078 39.8312 40.0185L36.6179 35.3207L36.9913 34.7755C37.2751 34.3613 37.8846 34.3613 38.1668 34.7755L42.2296 40.7134Z" fill="#FECBA9"/>
<path d="M37.7276 49.2227H14.0023C13.4295 49.2227 13.0911 48.5806 13.4147 48.1083L21.0734 36.9128L25.2768 30.7681C25.5596 30.3549 26.1701 30.3549 26.4531 30.7681L31.515 38.1672L38.3152 48.1083C38.6386 48.5806 38.3001 49.2227 37.7276 49.2227V49.2227Z" fill="#CBD359"/>
<path d="M37.7275 49.2224H35.8046C36.3779 49.2224 36.7163 48.5806 36.393 48.1083L24.9037 31.3135L25.2768 30.7681C25.5595 30.3549 26.1701 30.3549 26.4528 30.7681L38.3152 48.1083C38.6385 48.5806 38.3003 49.2224 37.7275 49.2224V49.2224Z" fill="#BEC121"/>
<path d="M31.5148 38.1674C30.992 38.6561 30.5252 38.8657 30.0886 38.893C28.2429 39.0099 26.9529 35.8869 24.4238 37.0448C22.7416 37.8144 21.702 37.4814 21.0732 36.913L24.9031 31.314V31.3135L25.2767 30.7683C25.5594 30.3549 26.17 30.3549 26.453 30.7683L31.5148 38.1674Z" fill="#FFEC9C"/>
<path d="M31.5148 38.1674C30.992 38.6561 30.5252 38.8657 30.0886 38.893L24.9031 31.314V31.3135L25.2767 30.7683C25.5594 30.3549 26.17 30.3549 26.453 30.7683L31.5148 38.1674Z" fill="#FFDF4A"/>
<path d="M19.821 46.4243C19.6218 46.4243 19.432 46.3082 19.3479 46.1137L19.212 45.7995C19.0993 45.5384 19.2193 45.235 19.4802 45.1223C19.7419 45.0093 20.0447 45.1296 20.1574 45.3905L20.2933 45.7047C20.4063 45.9659 20.286 46.2689 20.0251 46.3819C19.9585 46.4105 19.8892 46.4243 19.821 46.4243Z" fill="#E6F073"/>
<path d="M21.3412 46.422C21.2719 46.422 21.2014 46.4079 21.1337 46.3782C20.8736 46.2634 20.7557 45.9593 20.8702 45.6992L21.009 45.3845C21.1238 45.1244 21.4276 45.0064 21.688 45.1212C21.9481 45.2358 22.066 45.5399 21.9515 45.8003L21.8127 46.1148C21.7276 46.3074 21.5391 46.422 21.3412 46.422Z" fill="#E6F073"/>
<path d="M36.8177 42.7746C36.6185 42.7746 36.4287 42.6583 36.3446 42.464L36.2087 42.1495C36.096 41.8884 36.216 41.5853 36.4772 41.4726C36.7383 41.3599 37.0414 41.4799 37.1541 41.7408L37.29 42.055C37.403 42.3162 37.283 42.6192 37.0218 42.7322C36.9552 42.7611 36.8859 42.7746 36.8177 42.7746V42.7746Z" fill="#2DB37A"/>
<path d="M38.338 42.7726C38.2688 42.7726 38.1982 42.7585 38.1305 42.7286C37.8704 42.6138 37.7525 42.3099 37.867 42.0496L38.0058 41.7351C38.1204 41.4747 38.4245 41.3565 38.6848 41.4716C38.9449 41.5861 39.0629 41.8902 38.9483 42.1503L38.8095 42.4651C38.7246 42.6578 38.5359 42.7726 38.338 42.7726V42.7726Z" fill="#2DB37A"/>
<rect y="47.4341" width="318.088" height="4.56585" fill="#386D9D"/>
</svg>
