<svg width="100" height="100" viewBox="0 0 100 100" fill="none" xmlns="http://www.w3.org/2000/svg">
<g clip-path="url(#clip0)">
<path d="M64.4918 32.7781L50.8499 49.1656L35.7837 47.3523C36.1796 37.0577 37.8472 26.8516 40.749 16.9667C43.6982 7.54401 47.4598 1.71436 50.8499 1.71436C55.7809 1.71436 61.696 14.4752 64.4918 32.7781V32.7781Z" fill="#2FA8CC"/>
<path d="M66.1018 53.5212V54.6227C66.0843 73.3322 63.2541 89.7029 59.0005 99.0408C58.7175 99.6343 58.1164 100.011 57.4588 100.007L44.138 99.9898C43.4812 99.9913 42.8808 99.616 42.5963 99.0233C39.5457 92.2447 37.2236 81.7716 36.1899 69.3662L44.0701 50.8604L66.1018 53.5212Z" fill="#2FA8CC"/>
<path d="M66.1018 53.5216L36.1899 69.3666C35.8001 64.6896 35.5972 59.7243 35.5972 54.5888C35.5972 52.1317 35.6643 49.7081 35.7833 47.3525L64.4914 32.7783C65.5228 39.6454 66.0606 46.5774 66.1018 53.5216Z" fill="#67B9CC"/>
<path d="M54.239 94.9226C53.303 94.9226 52.5439 94.1644 52.5439 93.2283V88.144C52.5439 87.208 53.303 86.4497 54.239 86.4497C55.175 86.4497 55.9333 87.208 55.9333 88.144V93.2283C55.9333 94.1644 55.175 94.9226 54.239 94.9226V94.9226Z" fill="#67B9CC"/>
<path d="M47.4599 94.9226C46.5247 94.9226 45.7656 94.1644 45.7656 93.2283V88.144C45.7656 87.208 46.5247 86.4497 47.4599 86.4497C48.3959 86.4497 49.1549 87.208 49.1549 88.144V93.2283C49.1549 94.1644 48.3959 94.9226 47.4599 94.9226Z" fill="#67B9CC"/>
</g>
<defs>
<clipPath id="clip0">
<rect width="100" height="100" fill="white"/>
</clipPath>
</defs>
</svg>
