<svg width="11" height="10" viewBox="0 0 11 10" fill="none" xmlns="http://www.w3.org/2000/svg">
<path className="phone-svg" d="M10.395 6.87778C9.64333 6.87778 8.91611 6.76667 8.23778 6.56667C8.02389 6.5 7.78556 6.55 7.62056 6.7L6.66111 7.79445C4.93167 7.04445 3.31222 5.62778 2.45056 4L3.64222 3.07778C3.80722 2.92222 3.85611 2.70556 3.78889 2.51111C3.56278 1.89444 3.44667 1.23333 3.44667 0.55C3.44667 0.25 3.17167 0 2.84167 0H0.727222C0.397222 0 0 0.133333 0 0.55C0 5.71111 4.72389 10 10.395 10C10.8289 10 11 9.65 11 9.34444V7.42778C11 7.12778 10.725 6.87778 10.395 6.87778Z" fill="#78B6E3"/>
</svg>
