<svg width="450" height="273" viewBox="0 0 450 273" fill="none" xmlns="http://www.w3.org/2000/svg">
<path d="M332.955 142.464H272.537L273.188 133.397L275.199 105.502L276.928 81.4579L278.936 53.5591L279.708 42.8354L279.96 39.3541H325.532L325.781 42.8354L326.832 57.4173L328.447 79.8498L330.32 105.879L331.935 128.308L332.955 142.464Z" fill="#E6E6E6"/>
<path d="M302.745 0.712769L283.112 10.5186H322.378L302.745 0.712769Z" fill="#597BAE"/>
<path d="M318.654 10.5188H286.837V29.5484H318.654V10.5188Z" fill="#E6E6E6"/>
<path d="M331.935 128.308L302.549 142.464H272.537L273.188 133.397L330.32 105.879L331.935 128.308Z" fill="#597BAE"/>
<path d="M328.447 79.8495L275.199 105.502L276.928 81.4577L326.832 57.417L328.447 79.8495Z" fill="#597BAE"/>
<path d="M308.423 39.3541L278.936 53.5591L279.96 39.3541H308.423Z" fill="#597BAE"/>
<path d="M292.04 13.3789H288.238V26.3142H292.04V13.3789Z" fill="#2D4151"/>
<path d="M310.45 13.3789H295.042V26.3142H310.45V13.3789Z" fill="#2D4151"/>
<path d="M317.253 13.3789H313.451V26.3142H317.253V13.3789Z" fill="#2D4151"/>
<path opacity="0.34" d="M325.781 42.8354H279.707L279.96 39.3541H325.532L325.781 42.8354Z" fill="#2D4151"/>
<path d="M295.964 120.715V142.464H279.356V120.715C279.356 117.882 280.272 115.319 281.758 113.453C283.261 111.565 285.35 110.394 287.659 110.394C292.245 110.394 295.964 115.013 295.964 120.715Z" fill="#2D4151"/>
<path d="M289.057 110.543C287.31 110.909 285.75 111.957 284.558 113.453C283.072 115.319 282.157 117.882 282.157 120.715V142.464H279.356V120.715C279.356 117.882 280.272 115.319 281.758 113.453C283.261 111.565 285.35 110.394 287.659 110.394C288.136 110.394 288.604 110.442 289.057 110.543Z" fill="#B3B3B3"/>
<path opacity="0.2" d="M295.935 25.5474H309.564V15.855C309.564 15.855 307.375 24.3601 295.935 25.5474Z" fill="#FCFAFA"/>
<path d="M329.657 29.0216H275.833V39.88H329.657V29.0216Z" fill="#B3B3B3"/>
<path d="M449.265 272.84L313.87 272.918L178.421 273L194.743 217.772L216.079 207.578L230.54 166.802L252.586 156.608L260.883 137.107L268.977 135.931L279.073 140.881H300.837L322.152 132.819L351.385 140.881L364.143 145.853L386.098 187.575L398.712 197.384L410.763 217.772L433.352 227.966L449.265 272.84Z" fill="#766E6E"/>
<path d="M376.713 272.884L300.897 272.922L214.606 272.963L248.84 272.946L257.283 253.451L266.916 237.341L315.839 237.341L344.511 253.451H366.319L376.713 272.884Z" fill="#5B5555"/>
<path d="M449.265 272.962L386.421 273V244.439L404.497 233.141L422.573 253.529H440.649L449.265 272.962Z" fill="#5B5555"/>
<path d="M283.534 156.413L231.918 166.094L243.441 156.413H283.534Z" fill="#5B5555"/>
<path d="M398.712 209.199L342.144 223.04L322.907 209.199L336.654 202.471L374.678 202.471L398.712 209.199Z" fill="#5B5555"/>
<path d="M241.597 211.514L250.604 217.772L233.389 229.079L194.743 217.772L215.326 207.616L241.597 211.514Z" fill="#5B5555"/>
<path d="M332.955 255.201L318.783 262.608L306.364 262.178L301.845 272.89H284.526L283.534 267.663L286.931 262.608L296.66 252.452L321.203 250.522L332.955 255.201Z" fill="#766E6E"/>
<path d="M315.278 240.934L314.699 245.548L307.757 247.413L298.298 250.522H287.015L286.368 247.117L288.581 243.824L295.691 239.583L307.757 239.583L315.278 240.934Z" fill="#766E6E"/>
<path d="M67.3743 272.932L0.123596 272.867L8.02753 235.503L19.2475 227.014L25.233 210.038L31.4984 201.871L45.2839 195.795L59.468 177.504L80.1987 177.504L87.5375 174.532L95.0152 176.202L106.925 192.376L115.784 210.038L137.53 222.754L150.918 227.014L169.126 272.932H67.3743Z" fill="#766E6E"/>
<path d="M67.3878 272.935L105.046 272.966L147.907 273L130.903 272.986L126.709 256.754L121.924 243.339L97.6243 243.339L83.3826 256.754H72.5509L67.3878 272.935Z" fill="#5B5555"/>
<path d="M23.9213 272.969L55.136 273V249.219L46.1576 239.812L37.1793 256.788H28.201L23.9213 272.969Z" fill="#5B5555"/>
<path d="M60.5802 220.242L88.6777 231.766L98.2324 220.242L91.4042 214.639L72.518 214.639L60.5802 220.242Z" fill="#5B5555"/>
</svg>
