<svg width="58" height="56" viewBox="0 0 58 56" fill="none" xmlns="http://www.w3.org/2000/svg">
<path d="M38.7077 28.3398C38.7077 33.5131 34.5143 37.7076 29.3399 37.7076C24.1665 37.7076 19.9731 33.5131 19.9731 28.3398C19.9731 23.1664 24.1665 18.972 29.3399 18.972C34.5143 18.972 38.7077 23.1664 38.7077 28.3398V28.3398Z" fill="#FFF27E"/>
<rect x="28" y="45" width="3" height="11" rx="1.5" fill="#FFF27E"/>
<rect x="47" y="30" width="3" height="11" rx="1.5" transform="rotate(-90 47 30)" fill="#FFF27E"/>
<rect width="3" height="11" rx="1.5" transform="matrix(-1 0 0 1 31 0)" fill="#FFF27E"/>
<rect width="1.68861" height="7.18" rx="0.844305" transform="matrix(-0.722493 -0.691378 -0.691378 0.722493 19.175 42.0234)" fill="#FFF27E"/>
<rect width="1.68861" height="7.18" rx="0.844305" transform="matrix(0.707107 -0.707107 -0.707107 -0.707107 16.981 16.8995)" fill="#FFF27E"/>
<rect width="1.68861" height="7.18" rx="0.844305" transform="matrix(0.707107 0.707107 0.707107 -0.707107 41.4636 15.5986)" fill="#FFF27E"/>
<rect width="1.68861" height="7.18065" rx="0.844305" transform="matrix(-0.707107 0.707107 0.707107 0.707107 42.5509 40)" fill="#FFF27E"/>
<rect width="3" height="11" rx="1.5" transform="matrix(4.37114e-08 -1 -1 -4.37114e-08 11 30)" fill="#FFF27E"/>
</svg>
