<svg width="52" height="49" viewBox="0 0 52 49" fill="none" xmlns="http://www.w3.org/2000/svg">
<path d="M32.329 38.6605C31.2837 38.5302 30.2821 38.1131 29.5139 37.4667C28.8284 36.888 27.8511 36.8776 27.1705 37.4667C25.3278 39.0515 21.9585 39.0515 20.0866 37.3885C19.4303 36.8046 18.4822 36.9141 17.8161 37.4823C15.9685 39.0515 12.6187 39.0463 10.7565 37.3937C10.1002 36.8098 9.13751 36.9297 8.46657 37.498C7.71297 38.134 6.71627 38.5458 5.66122 38.6657C5.27713 38.7074 5 39.0724 5 39.4842V41.1629C5 41.6373 5.36951 42.0387 5.81194 41.997C7.21218 41.8667 8.5395 41.4027 9.67233 40.6468C12.4193 42.4506 16.3332 42.4245 19.0073 40.6468C21.7543 42.4506 25.6681 42.4245 28.3422 40.6468C29.475 41.3871 30.8169 41.8615 32.188 41.9918C32.6304 42.0335 32.9999 41.6321 32.9999 41.1577V39.5103C33.0048 39.0932 32.7228 38.7074 32.329 38.6605Z" fill="white"/>
<path d="M51.329 38.6605C50.2837 38.5302 49.2821 38.1131 48.5139 37.4667C47.8284 36.888 46.8511 36.8776 46.1705 37.4667C44.3278 39.0515 40.9585 39.0515 39.0866 37.3885C38.4303 36.8046 37.4822 36.9141 36.8161 37.4823C34.9685 39.0515 31.6187 39.0463 29.7565 37.3937C29.1002 36.8098 28.1375 36.9297 27.4666 37.498C26.713 38.134 25.7163 38.5458 24.6612 38.6657C24.2771 38.7074 24 39.0724 24 39.4842V41.1629C24 41.6373 24.3695 42.0387 24.8119 41.997C26.2122 41.8667 27.5395 41.4027 28.6723 40.6468C31.4193 42.4506 35.3332 42.4245 38.0073 40.6468C40.7543 42.4506 44.6681 42.4245 47.3422 40.6468C48.475 41.3871 49.8169 41.8615 51.188 41.9918C51.6304 42.0335 51.9999 41.6321 51.9999 41.1577V39.5103C52.0048 39.0932 51.7228 38.7074 51.329 38.6605Z" fill="white"/>
<path d="M5.508 7.112C7.788 4.712 10.824 3.512 14.616 3.512C18.408 3.512 21.444 4.712 23.724 7.112C26.004 9.512 27.18 12.62 27.252 16.436C27.18 20.252 26.004 23.36 23.724 25.76C21.444 28.16 18.408 29.36 14.616 29.36C10.824 29.36 7.788 28.16 5.508 25.76C3.228 23.36 2.052 20.252 1.98 16.436C2.052 12.62 3.228 9.512 5.508 7.112ZM5.256 16.436C5.256 19.292 6.084 21.656 7.74 23.528C9.42 25.376 11.7 26.3 14.58 26.3C17.484 26.3 19.776 25.376 21.456 23.528C23.136 21.656 23.976 19.292 23.976 16.436C23.976 13.58 23.136 11.228 21.456 9.38C19.776 7.508 17.484 6.572 14.58 6.572C11.7 6.572 9.42 7.508 7.74 9.38C6.084 11.228 5.256 13.58 5.256 16.436Z" fill="white"/>
<path d="M45.348 39L42.648 32.556H30.444L27.744 39H24.18L34.836 13.872H38.256L48.912 39H45.348ZM31.74 29.388V29.568H41.352V29.388L36.6 17.904H36.528L31.74 29.388Z" fill="white"/>
</svg>
