<svg width="1493" height="35" viewBox="0 0 1493 35" fill="none" xmlns="http://www.w3.org/2000/svg">
<path d="M103.905 0.672955C104.727 -0.145048 106.168 -0.110863 106.941 0.745025L118.449 13.4782C118.465 13.4958 118.475 13.506 118.491 13.5231C119.015 14.0548 130.797 25.9254 139.539 25.9254C146.909 25.9254 143.11 31.9949 141.546 34.1297C141.2 34.6008 140.611 34.8615 139.983 34.8615H74.0251C72.2909 34.8615 71.3781 33.0133 72.5412 31.8569L103.905 0.672955Z" fill="#366F99"/>
<path d="M174.006 0.592301C174.8 -0.197434 176.179 -0.197434 176.974 0.592302L208.418 31.8569C209.581 33.0133 208.668 34.8615 206.934 34.8615H140.431C139.863 34.8615 139.323 34.6469 138.965 34.2515C137.141 32.237 132.024 25.9254 139.539 25.9254C148.464 25.9254 157.478 17.025 157.514 16.9893L157.516 16.9875L174.006 0.592301Z" fill="#366F99"/>
<path d="M174.925 0.672955C175.748 -0.145048 177.188 -0.110863 177.962 0.745025L189.47 13.4782C189.486 13.4958 189.495 13.506 189.512 13.5231C190.035 14.0548 201.817 25.9254 210.56 25.9254C217.93 25.9254 214.13 31.9949 212.566 34.1297C212.221 34.6008 211.631 34.8615 211.004 34.8615H145.045C143.311 34.8615 142.398 33.0133 143.562 31.8569L174.925 0.672955Z" fill="#366F99"/>
<path d="M245.026 0.592301C245.82 -0.197434 247.2 -0.197434 247.994 0.592302L279.438 31.8569C280.602 33.0133 279.689 34.8615 277.954 34.8615H211.451C210.884 34.8615 210.344 34.6469 209.985 34.2515C208.161 32.237 203.044 25.9254 210.56 25.9254C219.484 25.9254 228.499 17.025 228.535 16.9893L228.537 16.9875L245.026 0.592301Z" fill="#366F99"/>
<path d="M245.945 0.672955C246.768 -0.145048 248.208 -0.110863 248.982 0.745025L260.49 13.4782C260.506 13.4958 260.515 13.506 260.532 13.5231C261.055 14.0548 272.838 25.9254 281.58 25.9254C288.95 25.9254 285.151 31.9949 283.586 34.1297C283.241 34.6008 282.652 34.8615 282.024 34.8615H216.066C214.332 34.8615 213.419 33.0133 214.582 31.8569L245.945 0.672955Z" fill="#366F99"/>
<path d="M316.046 0.592301C316.841 -0.197434 318.22 -0.197434 319.014 0.592302L350.459 31.8569C351.622 33.0133 350.709 34.8615 348.975 34.8615H282.471C281.904 34.8615 281.364 34.6469 281.006 34.2515C279.181 32.237 274.064 25.9254 281.58 25.9254C290.505 25.9254 299.519 17.025 299.555 16.9893L299.557 16.9875L316.046 0.592301Z" fill="#366F99"/>
<path d="M317.966 0.672955C318.789 -0.145048 320.229 -0.110863 321.003 0.745025L332.511 13.4782C332.527 13.4958 332.536 13.506 332.553 13.5231C333.076 14.0548 344.858 25.9254 353.601 25.9254C360.971 25.9254 357.171 31.9949 355.607 34.1297C355.262 34.6008 354.672 34.8615 354.045 34.8615H288.086C286.352 34.8615 285.439 33.0133 286.603 31.8569L317.966 0.672955Z" fill="#366F99"/>
<path d="M388.067 0.592301C388.861 -0.197434 390.241 -0.197434 391.035 0.592302L422.479 31.8569C423.643 33.0133 422.73 34.8615 420.995 34.8615H354.492C353.925 34.8615 353.385 34.6469 353.026 34.2515C351.202 32.237 346.085 25.9254 353.601 25.9254C362.525 25.9254 371.54 17.025 371.576 16.9893L371.577 16.9875L388.067 0.592301Z" fill="#366F99"/>
<path d="M31.8839 0.672955C32.7066 -0.145048 34.147 -0.110863 34.9205 0.745025L46.4288 13.4782C46.4447 13.4958 46.454 13.506 46.4708 13.5231C46.9942 14.0548 58.7764 25.9254 67.5187 25.9254C74.8887 25.9254 71.0892 31.9949 69.525 34.1297C69.1797 34.6008 68.5902 34.8615 67.9626 34.8615H2.00451C0.270302 34.8615 -0.642517 33.0133 0.520556 31.8569L31.8839 0.672955Z" fill="#366F99"/>
<path d="M101.985 0.592301C102.779 -0.197434 104.159 -0.197434 104.953 0.592302L136.397 31.8569C137.561 33.0133 136.648 34.8615 134.914 34.8615H68.4099C67.8426 34.8615 67.3027 34.6469 66.9445 34.2515C65.12 32.237 60.0032 25.9254 67.5187 25.9254C76.4434 25.9254 85.4576 17.025 85.4938 16.9893L85.4955 16.9875L101.985 0.592301Z" fill="#366F99"/>
<path d="M459.905 0.672955C460.727 -0.145048 462.168 -0.110863 462.941 0.745025L474.449 13.4782C474.465 13.4958 474.475 13.506 474.491 13.5231C475.015 14.0548 486.797 25.9254 495.539 25.9254C502.909 25.9254 499.11 31.9949 497.546 34.1297C497.2 34.6008 496.611 34.8615 495.983 34.8615H430.025C428.291 34.8615 427.378 33.0133 428.541 31.8569L459.905 0.672955Z" fill="#366F99"/>
<path d="M530.006 0.592301C530.8 -0.197434 532.179 -0.197434 532.974 0.592302L564.418 31.8569C565.581 33.0133 564.668 34.8615 562.934 34.8615H496.431C495.863 34.8615 495.323 34.6469 494.965 34.2515C493.141 32.237 488.024 25.9254 495.539 25.9254C504.464 25.9254 513.478 17.025 513.514 16.9893L513.516 16.9875L530.006 0.592301Z" fill="#366F99"/>
<path d="M530.925 0.672955C531.748 -0.145048 533.188 -0.110863 533.961 0.745025L545.47 13.4782C545.486 13.4958 545.495 13.506 545.512 13.5231C546.035 14.0548 557.817 25.9254 566.56 25.9254C573.93 25.9254 570.13 31.9949 568.566 34.1297C568.221 34.6008 567.631 34.8615 567.004 34.8615H501.046C499.311 34.8615 498.398 33.0133 499.562 31.8569L530.925 0.672955Z" fill="#366F99"/>
<path d="M601.026 0.592301C601.82 -0.197434 603.2 -0.197434 603.994 0.592302L635.438 31.8569C636.602 33.0133 635.689 34.8615 633.955 34.8615H567.451C566.884 34.8615 566.344 34.6469 565.985 34.2515C564.161 32.237 559.044 25.9254 566.56 25.9254C575.484 25.9254 584.499 17.025 584.535 16.9893L584.536 16.9875L601.026 0.592301Z" fill="#366F99"/>
<path d="M601.945 0.672955C602.768 -0.145048 604.208 -0.110863 604.982 0.745025L616.49 13.4782C616.506 13.4958 616.515 13.506 616.532 13.5231C617.055 14.0548 628.838 25.9254 637.58 25.9254C644.95 25.9254 641.151 31.9949 639.586 34.1297C639.241 34.6008 638.652 34.8615 638.024 34.8615H572.066C570.332 34.8615 569.419 33.0133 570.582 31.8569L601.945 0.672955Z" fill="#366F99"/>
<path d="M672.046 0.592301C672.841 -0.197434 674.22 -0.197434 675.014 0.592302L706.459 31.8569C707.622 33.0133 706.709 34.8615 704.975 34.8615H638.471C637.904 34.8615 637.364 34.6469 637.006 34.2515C635.181 32.237 630.064 25.9254 637.58 25.9254C646.505 25.9254 655.519 17.025 655.555 16.9893L655.557 16.9875L672.046 0.592301Z" fill="#366F99"/>
<path d="M673.966 0.672955C674.789 -0.145048 676.229 -0.110863 677.003 0.745025L688.511 13.4782C688.527 13.4958 688.536 13.506 688.553 13.5231C689.076 14.0548 700.858 25.9254 709.601 25.9254C716.971 25.9254 713.171 31.9949 711.607 34.1297C711.262 34.6008 710.672 34.8615 710.045 34.8615H644.086C642.352 34.8615 641.439 33.0133 642.603 31.8569L673.966 0.672955Z" fill="#366F99"/>
<path d="M744.067 0.592301C744.861 -0.197434 746.241 -0.197434 747.035 0.592302L778.479 31.8569C779.643 33.0133 778.73 34.8615 776.995 34.8615H710.492C709.925 34.8615 709.385 34.6469 709.026 34.2515C707.202 32.237 702.085 25.9254 709.601 25.9254C718.525 25.9254 727.54 17.025 727.576 16.9893L727.578 16.9875L744.067 0.592301Z" fill="#366F99"/>
<path d="M387.884 0.672955C388.707 -0.145048 390.147 -0.110863 390.921 0.745025L402.429 13.4782C402.445 13.4958 402.454 13.506 402.471 13.5231C402.994 14.0548 414.776 25.9254 423.519 25.9254C430.889 25.9254 427.089 31.9949 425.525 34.1297C425.18 34.6008 424.59 34.8615 423.963 34.8615H358.005C356.27 34.8615 355.357 33.0133 356.521 31.8569L387.884 0.672955Z" fill="#366F99"/>
<path d="M457.985 0.592301C458.779 -0.197434 460.159 -0.197434 460.953 0.592302L492.397 31.8569C493.561 33.0133 492.648 34.8615 490.914 34.8615H424.41C423.843 34.8615 423.303 34.6469 422.945 34.2515C421.12 32.237 416.003 25.9254 423.519 25.9254C432.443 25.9254 441.458 17.025 441.494 16.9893L441.496 16.9875L457.985 0.592301Z" fill="#366F99"/>
<path d="M816.905 0.672955C817.727 -0.145048 819.168 -0.110863 819.941 0.745025L831.449 13.4782C831.465 13.4958 831.475 13.506 831.491 13.5231C832.015 14.0548 843.797 25.9254 852.539 25.9254C859.909 25.9254 856.11 31.9949 854.546 34.1297C854.2 34.6008 853.611 34.8615 852.983 34.8615H787.025C785.291 34.8615 784.378 33.0133 785.541 31.8569L816.905 0.672955Z" fill="#366F99"/>
<path d="M887.006 0.592301C887.8 -0.197434 889.179 -0.197434 889.974 0.592302L921.418 31.8569C922.581 33.0133 921.668 34.8615 919.934 34.8615H853.431C852.863 34.8615 852.323 34.6469 851.965 34.2515C850.141 32.237 845.024 25.9254 852.539 25.9254C861.464 25.9254 870.478 17.025 870.514 16.9893L870.516 16.9875L887.006 0.592301Z" fill="#366F99"/>
<path d="M887.925 0.672955C888.748 -0.145048 890.188 -0.110863 890.961 0.745025L902.47 13.4782C902.486 13.4958 902.495 13.506 902.512 13.5231C903.035 14.0548 914.817 25.9254 923.56 25.9254C930.93 25.9254 927.13 31.9949 925.566 34.1297C925.221 34.6008 924.631 34.8615 924.004 34.8615H858.045C856.311 34.8615 855.398 33.0133 856.562 31.8569L887.925 0.672955Z" fill="#366F99"/>
<path d="M958.026 0.592301C958.82 -0.197434 960.2 -0.197434 960.994 0.592302L992.438 31.8569C993.602 33.0133 992.689 34.8615 990.955 34.8615H924.451C923.884 34.8615 923.344 34.6469 922.985 34.2515C921.161 32.237 916.044 25.9254 923.56 25.9254C932.484 25.9254 941.499 17.025 941.535 16.9893L941.536 16.9875L958.026 0.592301Z" fill="#366F99"/>
<path d="M958.945 0.672955C959.768 -0.145048 961.208 -0.110863 961.982 0.745025L973.49 13.4782C973.506 13.4958 973.515 13.506 973.532 13.5231C974.055 14.0548 985.838 25.9254 994.58 25.9254C1001.95 25.9254 998.151 31.9949 996.586 34.1297C996.241 34.6008 995.652 34.8615 995.024 34.8615H929.066C927.332 34.8615 926.419 33.0133 927.582 31.8569L958.945 0.672955Z" fill="#366F99"/>
<path d="M1029.05 0.592301C1029.84 -0.197434 1031.22 -0.197434 1032.01 0.592302L1063.46 31.8569C1064.62 33.0133 1063.71 34.8615 1061.97 34.8615H995.471C994.904 34.8615 994.364 34.6469 994.006 34.2515C992.181 32.237 987.064 25.9254 994.58 25.9254C1003.5 25.9254 1012.52 17.025 1012.56 16.9893L1012.56 16.9875L1029.05 0.592301Z" fill="#366F99"/>
<path d="M1030.97 0.672955C1031.79 -0.145048 1033.23 -0.110863 1034 0.745025L1045.51 13.4782C1045.53 13.4958 1045.54 13.506 1045.55 13.5231C1046.08 14.0548 1057.86 25.9254 1066.6 25.9254C1073.97 25.9254 1070.17 31.9949 1068.61 34.1297C1068.26 34.6008 1067.67 34.8615 1067.04 34.8615H1001.09C999.352 34.8615 998.439 33.0133 999.603 31.8569L1030.97 0.672955Z" fill="#366F99"/>
<path d="M1101.07 0.592301C1101.86 -0.197434 1103.24 -0.197434 1104.03 0.592302L1135.48 31.8569C1136.64 33.0133 1135.73 34.8615 1134 34.8615H1067.49C1066.92 34.8615 1066.38 34.6469 1066.03 34.2515C1064.2 32.237 1059.09 25.9254 1066.6 25.9254C1075.53 25.9254 1084.54 17.025 1084.58 16.9893L1084.58 16.9875L1101.07 0.592301Z" fill="#366F99"/>
<path d="M744.884 0.672955C745.707 -0.145048 747.147 -0.110863 747.921 0.745025L759.429 13.4782C759.445 13.4958 759.454 13.506 759.471 13.5231C759.994 14.0548 771.776 25.9254 780.519 25.9254C787.889 25.9254 784.089 31.9949 782.525 34.1297C782.18 34.6008 781.59 34.8615 780.963 34.8615H715.005C713.27 34.8615 712.357 33.0133 713.521 31.8569L744.884 0.672955Z" fill="#366F99"/>
<path d="M814.985 0.592301C815.779 -0.197434 817.159 -0.197434 817.953 0.592302L849.397 31.8569C850.561 33.0133 849.648 34.8615 847.914 34.8615H781.41C780.843 34.8615 780.303 34.6469 779.945 34.2515C778.12 32.237 773.003 25.9254 780.519 25.9254C789.443 25.9254 798.458 17.025 798.494 16.9893L798.496 16.9875L814.985 0.592301Z" fill="#366F99"/>
<path d="M1173.9 0.672955C1174.73 -0.145048 1176.17 -0.110863 1176.94 0.745025L1188.45 13.4782C1188.47 13.4958 1188.47 13.506 1188.49 13.5231C1189.01 14.0548 1200.8 25.9254 1209.54 25.9254C1216.91 25.9254 1213.11 31.9949 1211.55 34.1297C1211.2 34.6008 1210.61 34.8615 1209.98 34.8615H1144.03C1142.29 34.8615 1141.38 33.0133 1142.54 31.8569L1173.9 0.672955Z" fill="#366F99"/>
<path d="M1244.01 0.592301C1244.8 -0.197434 1246.18 -0.197434 1246.97 0.592302L1278.42 31.8569C1279.58 33.0133 1278.67 34.8615 1276.93 34.8615H1210.43C1209.86 34.8615 1209.32 34.6469 1208.97 34.2515C1207.14 32.237 1202.02 25.9254 1209.54 25.9254C1218.46 25.9254 1227.48 17.025 1227.51 16.9893L1227.52 16.9875L1244.01 0.592301Z" fill="#366F99"/>
<path d="M1244.92 0.672955C1245.75 -0.145048 1247.19 -0.110863 1247.96 0.745025L1259.47 13.4782C1259.49 13.4958 1259.49 13.506 1259.51 13.5231C1260.04 14.0548 1271.82 25.9254 1280.56 25.9254C1287.93 25.9254 1284.13 31.9949 1282.57 34.1297C1282.22 34.6008 1281.63 34.8615 1281 34.8615H1215.05C1213.31 34.8615 1212.4 33.0133 1213.56 31.8569L1244.92 0.672955Z" fill="#366F99"/>
<path d="M1315.03 0.592301C1315.82 -0.197434 1317.2 -0.197434 1317.99 0.592302L1349.44 31.8569C1350.6 33.0133 1349.69 34.8615 1347.95 34.8615H1281.45C1280.88 34.8615 1280.34 34.6469 1279.99 34.2515C1278.16 32.237 1273.04 25.9254 1280.56 25.9254C1289.48 25.9254 1298.5 17.025 1298.53 16.9893L1298.54 16.9875L1315.03 0.592301Z" fill="#366F99"/>
<path d="M1315.95 0.672955C1316.77 -0.145048 1318.21 -0.110863 1318.98 0.745025L1330.49 13.4782C1330.51 13.4958 1330.52 13.506 1330.53 13.5231C1331.06 14.0548 1342.84 25.9254 1351.58 25.9254C1358.95 25.9254 1355.15 31.9949 1353.59 34.1297C1353.24 34.6008 1352.65 34.8615 1352.02 34.8615H1286.07C1284.33 34.8615 1283.42 33.0133 1284.58 31.8569L1315.95 0.672955Z" fill="#366F99"/>
<path d="M1386.05 0.592301C1386.84 -0.197434 1388.22 -0.197434 1389.01 0.592302L1420.46 31.8569C1421.62 33.0133 1420.71 34.8615 1418.97 34.8615H1352.47C1351.9 34.8615 1351.36 34.6469 1351.01 34.2515C1349.18 32.237 1344.06 25.9254 1351.58 25.9254C1360.5 25.9254 1369.52 17.025 1369.56 16.9893L1369.56 16.9875L1386.05 0.592301Z" fill="#366F99"/>
<path d="M1387.97 0.672955C1388.79 -0.145048 1390.23 -0.110863 1391 0.745025L1402.51 13.4782C1402.53 13.4958 1402.54 13.506 1402.55 13.5231C1403.08 14.0548 1414.86 25.9254 1423.6 25.9254C1430.97 25.9254 1427.17 31.9949 1425.61 34.1297C1425.26 34.6008 1424.67 34.8615 1424.04 34.8615H1358.09C1356.35 34.8615 1355.44 33.0133 1356.6 31.8569L1387.97 0.672955Z" fill="#366F99"/>
<path d="M1458.07 0.592301C1458.86 -0.197434 1460.24 -0.197434 1461.03 0.592302L1492.48 31.8569C1493.64 33.0133 1492.73 34.8615 1491 34.8615H1424.49C1423.92 34.8615 1423.38 34.6469 1423.03 34.2515C1421.2 32.237 1416.09 25.9254 1423.6 25.9254C1432.53 25.9254 1441.54 17.025 1441.58 16.9893L1441.58 16.9875L1458.07 0.592301Z" fill="#366F99"/>
<path d="M1101.88 0.672955C1102.71 -0.145048 1104.15 -0.110863 1104.92 0.745025L1116.43 13.4782C1116.44 13.4958 1116.45 13.506 1116.47 13.5231C1116.99 14.0548 1128.78 25.9254 1137.52 25.9254C1144.89 25.9254 1141.09 31.9949 1139.52 34.1297C1139.18 34.6008 1138.59 34.8615 1137.96 34.8615H1072C1070.27 34.8615 1069.36 33.0133 1070.52 31.8569L1101.88 0.672955Z" fill="#366F99"/>
<path d="M1171.99 0.592301C1172.78 -0.197434 1174.16 -0.197434 1174.95 0.592302L1206.4 31.8569C1207.56 33.0133 1206.65 34.8615 1204.91 34.8615H1138.41C1137.84 34.8615 1137.3 34.6469 1136.94 34.2515C1135.12 32.237 1130 25.9254 1137.52 25.9254C1146.44 25.9254 1155.46 17.025 1155.49 16.9893L1155.5 16.9875L1171.99 0.592301Z" fill="#366F99"/>
</svg>
