<svg width="1491" height="35" viewBox="0 0 1491 35" fill="none" xmlns="http://www.w3.org/2000/svg">
<path d="M101.859 0.74503C102.682 -0.0729734 104.122 -0.0387883 104.896 0.817099L116.404 13.5503C116.42 13.5679 116.429 13.5781 116.446 13.5951C116.969 14.1268 128.751 25.9974 137.494 25.9974C144.864 25.9974 141.064 32.067 139.5 34.2017C139.155 34.6729 138.565 34.9336 137.938 34.9336H71.9796C70.2453 34.9336 69.3325 33.0854 70.4956 31.929L101.859 0.74503Z" fill="#366F99"/>
<path d="M174.006 0.592307C174.8 -0.197429 176.179 -0.197428 176.974 0.592307L208.418 31.8569C209.581 33.0133 208.668 34.8615 206.934 34.8615H140.431C139.863 34.8615 139.323 34.6469 138.965 34.2515C137.141 32.237 129.978 25.9974 137.494 25.9974C146.418 25.9974 157.478 17.025 157.514 16.9893L157.516 16.9875L174.006 0.592307Z" fill="#366F99"/>
<path d="M174.069 0.592307C174.892 -0.225697 176.332 -0.191512 177.106 0.664376L188.614 13.3975C188.63 13.4152 188.639 13.4254 188.656 13.4424C189.179 13.9741 202.023 25.9254 210.765 25.9254C218.135 25.9254 213.274 31.9143 211.71 34.049C211.365 34.5201 210.775 34.7809 210.148 34.7809H144.189C142.455 34.7809 141.542 32.9327 142.706 31.7762L174.069 0.592307Z" fill="#366F99"/>
<path d="M246.088 0.672955C246.882 -0.11678 248.261 -0.116779 249.056 0.672956L280.5 31.9375C281.663 33.094 280.75 34.9422 279.016 34.9422H212.512C211.945 34.9422 211.405 34.7276 211.047 34.3321C209.223 32.3177 203.25 25.9254 210.765 25.9254C219.69 25.9254 229.56 17.1056 229.596 17.07L229.598 17.0682L246.088 0.672955Z" fill="#366F99"/>
<path d="M245.945 0.672961C246.768 -0.145043 248.208 -0.110858 248.982 0.74503L260.49 13.4782C260.506 13.4958 260.515 13.506 260.532 13.5231C261.055 14.0548 272.838 25.9254 281.58 25.9254C288.95 25.9254 285.151 31.9949 283.586 34.1297C283.241 34.6008 282.652 34.8615 282.024 34.8615H216.066C214.332 34.8615 213.419 33.0133 214.582 31.8569L245.945 0.672961Z" fill="#366F99"/>
<path d="M316.046 0.592307C316.841 -0.197429 318.22 -0.197428 319.014 0.592307L350.459 31.8569C351.622 33.0133 350.709 34.8615 348.975 34.8615H282.471C281.904 34.8615 281.364 34.6469 281.006 34.2515C279.181 32.237 274.064 25.9254 281.58 25.9254C290.505 25.9254 299.519 17.025 299.555 16.9893L299.557 16.9875L316.046 0.592307Z" fill="#366F99"/>
<path d="M316.086 0.592307C316.909 -0.225697 318.349 -0.191512 319.123 0.664376L330.631 13.3975C330.647 13.4152 330.656 13.4254 330.673 13.4424C331.196 13.9741 342.979 25.8447 351.721 25.8447C359.091 25.8447 355.291 31.9143 353.727 34.049C353.382 34.5201 352.792 34.7809 352.165 34.7809H286.207C284.472 34.7809 283.56 32.9327 284.723 31.7762L316.086 0.592307Z" fill="#366F99"/>
<path d="M388.067 0.592307C388.861 -0.197429 390.241 -0.197428 391.035 0.592307L422.479 31.8569C423.643 33.0133 422.73 34.8615 420.995 34.8615H354.492C353.925 34.8615 353.385 34.6469 353.026 34.2515C351.202 32.237 344.205 25.8447 351.721 25.8447C360.646 25.8447 371.54 17.025 371.576 16.9893L371.577 16.9875L388.067 0.592307Z" fill="#366F99"/>
<path d="M31.8839 0.672961C32.7066 -0.145043 34.147 -0.110858 34.9205 0.74503L46.4288 13.4782C46.4447 13.4958 46.454 13.506 46.4708 13.5231C46.9942 14.0548 58.7764 25.9254 67.5187 25.9254C74.8887 25.9254 71.0892 31.9949 69.525 34.1297C69.1797 34.6008 68.5902 34.8615 67.9626 34.8615H2.00451C0.270302 34.8615 -0.642517 33.0133 0.520556 31.8569L31.8839 0.672961Z" fill="#366F99"/>
<path d="M101.985 0.592307C102.779 -0.197429 104.159 -0.197428 104.953 0.592307L136.397 31.8569C137.561 33.0133 136.648 34.8615 134.914 34.8615H68.4099C67.8426 34.8615 67.3027 34.6469 66.9445 34.2515C65.12 32.237 60.0032 25.9254 67.5187 25.9254C76.4434 25.9254 85.4576 17.025 85.4938 16.9893L101.985 0.592307Z" fill="#366F99"/>
<path d="M457.859 0.74503C458.682 -0.0729734 460.122 -0.0387883 460.896 0.817099L472.404 13.5503C472.42 13.5679 472.429 13.5781 472.446 13.5951C472.969 14.1268 484.751 25.9974 493.494 25.9974C500.864 25.9974 497.064 32.067 495.5 34.2017C495.155 34.6729 494.565 34.9336 493.938 34.9336H427.98C426.245 34.9336 425.333 33.0854 426.496 31.929L457.859 0.74503Z" fill="#366F99"/>
<path d="M530.006 0.592307C530.8 -0.197429 532.179 -0.197428 532.974 0.592307L564.418 31.8569C565.581 33.0133 564.668 34.8615 562.934 34.8615H496.431C495.863 34.8615 495.323 34.6469 494.965 34.2515C493.141 32.237 485.978 25.9974 493.494 25.9974C502.418 25.9974 513.478 17.025 513.514 16.9893L513.516 16.9875L530.006 0.592307Z" fill="#366F99"/>
<path d="M530.069 0.592307C530.892 -0.225697 532.332 -0.191512 533.106 0.664376L544.614 13.3975C544.63 13.4152 544.639 13.4254 544.656 13.4424C545.179 13.9741 558.023 25.9254 566.765 25.9254C574.135 25.9254 569.274 31.9143 567.71 34.049C567.365 34.5201 566.775 34.7809 566.148 34.7809H500.19C498.455 34.7809 497.542 32.9327 498.706 31.7762L530.069 0.592307Z" fill="#366F99"/>
<path d="M602.088 0.672955C602.882 -0.11678 604.261 -0.116779 605.056 0.672956L636.5 31.9375C637.663 33.094 636.75 34.9422 635.016 34.9422H568.512C567.945 34.9422 567.405 34.7276 567.047 34.3321C565.223 32.3177 559.25 25.9254 566.765 25.9254C575.69 25.9254 585.56 17.1056 585.596 17.07L585.598 17.0682L602.088 0.672955Z" fill="#366F99"/>
<path d="M601.945 0.672961C602.768 -0.145043 604.208 -0.110858 604.982 0.74503L616.49 13.4782C616.506 13.4958 616.515 13.506 616.532 13.5231C617.055 14.0548 628.838 25.9254 637.58 25.9254C644.95 25.9254 641.151 31.9949 639.586 34.1297C639.241 34.6008 638.652 34.8615 638.024 34.8615H572.066C570.332 34.8615 569.419 33.0133 570.582 31.8569L601.945 0.672961Z" fill="#366F99"/>
<path d="M672.046 0.592307C672.841 -0.197429 674.22 -0.197428 675.014 0.592307L706.459 31.8569C707.622 33.0133 706.709 34.8615 704.975 34.8615H638.471C637.904 34.8615 637.364 34.6469 637.006 34.2515C635.181 32.237 630.064 25.9254 637.58 25.9254C646.505 25.9254 655.519 17.025 655.555 16.9893L655.557 16.9875L672.046 0.592307Z" fill="#366F99"/>
<path d="M672.086 0.592307C672.909 -0.225697 674.349 -0.191512 675.123 0.664376L686.631 13.3975C686.647 13.4152 686.656 13.4254 686.673 13.4424C687.196 13.9741 698.979 25.8447 707.721 25.8447C715.091 25.8447 711.291 31.9143 709.727 34.049C709.382 34.5201 708.792 34.7809 708.165 34.7809H642.207C640.472 34.7809 639.56 32.9327 640.723 31.7762L672.086 0.592307Z" fill="#366F99"/>
<path d="M744.067 0.592307C744.861 -0.197429 746.241 -0.197428 747.035 0.592307L778.479 31.8569C779.643 33.0133 778.73 34.8615 776.995 34.8615H710.492C709.925 34.8615 709.385 34.6469 709.026 34.2515C707.202 32.237 700.205 25.8447 707.721 25.8447C716.646 25.8447 727.54 17.025 727.576 16.9893L727.578 16.9875L744.067 0.592307Z" fill="#366F99"/>
<path d="M387.884 0.672961C388.707 -0.145043 390.147 -0.110858 390.921 0.74503L402.429 13.4782C402.445 13.4958 402.454 13.506 402.471 13.5231C402.994 14.0548 414.776 25.9254 423.519 25.9254C430.889 25.9254 427.089 31.9949 425.525 34.1297C425.18 34.6008 424.59 34.8615 423.963 34.8615H358.005C356.27 34.8615 355.357 33.0133 356.521 31.8569L387.884 0.672961Z" fill="#366F99"/>
<path d="M457.985 0.592307C458.779 -0.197429 460.159 -0.197428 460.953 0.592307L492.397 31.8569C493.561 33.0133 492.648 34.8615 490.914 34.8615H424.41C423.843 34.8615 423.303 34.6469 422.945 34.2515C421.12 32.237 416.003 25.9254 423.519 25.9254C432.443 25.9254 441.458 17.025 441.494 16.9893L457.985 0.592307Z" fill="#366F99"/>
<path d="M813.859 0.74503C814.682 -0.0729734 816.122 -0.0387883 816.896 0.817099L828.404 13.5503C828.42 13.5679 828.429 13.5781 828.446 13.5951C828.969 14.1268 840.751 25.9974 849.494 25.9974C856.864 25.9974 853.064 32.067 851.5 34.2017C851.155 34.6729 850.565 34.9336 849.938 34.9336H783.98C782.245 34.9336 781.333 33.0854 782.496 31.929L813.859 0.74503Z" fill="#366F99"/>
<path d="M886.006 0.592307C886.8 -0.197429 888.179 -0.197428 888.974 0.592307L920.418 31.8569C921.581 33.0133 920.668 34.8615 918.934 34.8615H852.431C851.863 34.8615 851.323 34.6469 850.965 34.2515C849.141 32.237 841.978 25.9974 849.494 25.9974C858.418 25.9974 869.478 17.025 869.514 16.9893L869.516 16.9875L886.006 0.592307Z" fill="#366F99"/>
<path d="M886.069 0.592307C886.892 -0.225697 888.332 -0.191512 889.106 0.664376L900.614 13.3975C900.63 13.4152 900.639 13.4254 900.656 13.4424C901.179 13.9741 914.023 25.9254 922.765 25.9254C930.135 25.9254 925.274 31.9143 923.71 34.049C923.365 34.5201 922.775 34.7809 922.148 34.7809H856.19C854.455 34.7809 853.542 32.9327 854.706 31.7762L886.069 0.592307Z" fill="#366F99"/>
<path d="M958.088 0.672955C958.882 -0.11678 960.261 -0.116779 961.056 0.672956L992.5 31.9375C993.663 33.094 992.75 34.9422 991.016 34.9422H924.512C923.945 34.9422 923.405 34.7276 923.047 34.3321C921.223 32.3177 915.25 25.9254 922.765 25.9254C931.69 25.9254 941.56 17.1056 941.596 17.07L941.598 17.0682L958.088 0.672955Z" fill="#366F99"/>
<path d="M957.945 0.672961C958.768 -0.145043 960.208 -0.110858 960.982 0.74503L972.49 13.4782C972.506 13.4958 972.515 13.506 972.532 13.5231C973.055 14.0548 984.838 25.9254 993.58 25.9254C1000.95 25.9254 997.151 31.9949 995.586 34.1297C995.241 34.6008 994.652 34.8615 994.024 34.8615H928.066C926.332 34.8615 925.419 33.0133 926.582 31.8569L957.945 0.672961Z" fill="#366F99"/>
<path d="M1028.05 0.592307C1028.84 -0.197429 1030.22 -0.197428 1031.01 0.592307L1062.46 31.8569C1063.62 33.0133 1062.71 34.8615 1060.97 34.8615H994.471C993.904 34.8615 993.364 34.6469 993.006 34.2515C991.181 32.237 986.064 25.9254 993.58 25.9254C1002.5 25.9254 1011.52 17.025 1011.56 16.9893L1011.56 16.9875L1028.05 0.592307Z" fill="#366F99"/>
<path d="M1028.09 0.592307C1028.91 -0.225697 1030.35 -0.191512 1031.12 0.664376L1042.63 13.3975C1042.65 13.4152 1042.66 13.4254 1042.67 13.4424C1043.2 13.9741 1054.98 25.8447 1063.72 25.8447C1071.09 25.8447 1067.29 31.9143 1065.73 34.049C1065.38 34.5201 1064.79 34.7809 1064.16 34.7809H998.207C996.472 34.7809 995.56 32.9327 996.723 31.7762L1028.09 0.592307Z" fill="#366F99"/>
<path d="M1100.07 0.592307C1100.86 -0.197429 1102.24 -0.197428 1103.03 0.592307L1134.48 31.8569C1135.64 33.0133 1134.73 34.8615 1133 34.8615H1066.49C1065.92 34.8615 1065.38 34.6469 1065.03 34.2515C1063.2 32.237 1056.21 25.8447 1063.72 25.8447C1072.65 25.8447 1083.54 17.025 1083.58 16.9893L1083.58 16.9875L1100.07 0.592307Z" fill="#366F99"/>
<path d="M743.884 0.672961C744.707 -0.145043 746.147 -0.110858 746.921 0.74503L758.429 13.4782C758.445 13.4958 758.454 13.506 758.471 13.5231C758.994 14.0548 770.776 25.9254 779.519 25.9254C786.889 25.9254 783.089 31.9949 781.525 34.1297C781.18 34.6008 780.59 34.8615 779.963 34.8615H714.005C712.27 34.8615 711.357 33.0133 712.521 31.8569L743.884 0.672961Z" fill="#366F99"/>
<path d="M813.985 0.592307C814.779 -0.197429 816.159 -0.197428 816.953 0.592307L848.397 31.8569C849.561 33.0133 848.648 34.8615 846.914 34.8615H780.41C779.843 34.8615 779.303 34.6469 778.945 34.2515C777.12 32.237 772.003 25.9254 779.519 25.9254C788.443 25.9254 797.458 17.025 797.494 16.9893L813.985 0.592307Z" fill="#366F99"/>
<path d="M1169.86 0.74503C1170.68 -0.0729734 1172.12 -0.0387883 1172.9 0.817099L1184.4 13.5503C1184.42 13.5679 1184.43 13.5781 1184.45 13.5951C1184.97 14.1268 1196.75 25.9974 1205.49 25.9974C1212.86 25.9974 1209.06 32.067 1207.5 34.2017C1207.15 34.6729 1206.57 34.9336 1205.94 34.9336H1139.98C1138.25 34.9336 1137.33 33.0854 1138.5 31.929L1169.86 0.74503Z" fill="#366F99"/>
<path d="M1242.01 0.592307C1242.8 -0.197429 1244.18 -0.197428 1244.97 0.592307L1276.42 31.8569C1277.58 33.0133 1276.67 34.8615 1274.93 34.8615H1208.43C1207.86 34.8615 1207.32 34.6469 1206.97 34.2515C1205.14 32.237 1197.98 25.9974 1205.49 25.9974C1214.42 25.9974 1225.48 17.025 1225.51 16.9893L1225.52 16.9875L1242.01 0.592307Z" fill="#366F99"/>
<path d="M1242.07 0.592307C1242.89 -0.225697 1244.33 -0.191512 1245.11 0.664376L1256.61 13.3975C1256.63 13.4152 1256.64 13.4254 1256.66 13.4424C1257.18 13.9741 1270.02 25.9254 1278.77 25.9254C1286.14 25.9254 1281.27 31.9143 1279.71 34.049C1279.36 34.5201 1278.78 34.7809 1278.15 34.7809H1212.19C1210.46 34.7809 1209.54 32.9327 1210.71 31.7762L1242.07 0.592307Z" fill="#366F99"/>
<path d="M1314.09 0.672955C1314.88 -0.11678 1316.26 -0.116779 1317.06 0.672956L1348.5 31.9375C1349.66 33.094 1348.75 34.9422 1347.02 34.9422H1280.51C1279.95 34.9422 1279.41 34.7276 1279.05 34.3321C1277.22 32.3177 1271.25 25.9254 1278.77 25.9254C1287.69 25.9254 1297.56 17.1056 1297.6 17.07L1297.6 17.0682L1314.09 0.672955Z" fill="#366F99"/>
<path d="M1313.95 0.672961C1314.77 -0.145043 1316.21 -0.110858 1316.98 0.74503L1328.49 13.4782C1328.51 13.4958 1328.52 13.506 1328.53 13.5231C1329.06 14.0548 1340.84 25.9254 1349.58 25.9254C1356.95 25.9254 1353.15 31.9949 1351.59 34.1297C1351.24 34.6008 1350.65 34.8615 1350.02 34.8615H1284.07C1282.33 34.8615 1281.42 33.0133 1282.58 31.8569L1313.95 0.672961Z" fill="#366F99"/>
<path d="M1384.05 0.592307C1384.84 -0.197429 1386.22 -0.197428 1387.01 0.592307L1418.46 31.8569C1419.62 33.0133 1418.71 34.8615 1416.97 34.8615H1350.47C1349.9 34.8615 1349.36 34.6469 1349.01 34.2515C1347.18 32.237 1342.06 25.9254 1349.58 25.9254C1358.5 25.9254 1367.52 17.025 1367.56 16.9893L1367.56 16.9875L1384.05 0.592307Z" fill="#366F99"/>
<path d="M1384.09 0.592307C1384.91 -0.225697 1386.35 -0.191512 1387.12 0.664376L1398.63 13.3975C1398.65 13.4152 1398.66 13.4254 1398.67 13.4424C1399.2 13.9741 1410.98 25.8447 1419.72 25.8447C1427.09 25.8447 1423.29 31.9143 1421.73 34.049C1421.38 34.5201 1420.79 34.7809 1420.16 34.7809H1354.21C1352.47 34.7809 1351.56 32.9327 1352.72 31.7762L1384.09 0.592307Z" fill="#366F99"/>
<path d="M1456.07 0.592307C1456.86 -0.197429 1458.24 -0.197428 1459.03 0.592307L1490.48 31.8569C1491.64 33.0133 1490.73 34.8615 1489 34.8615H1422.49C1421.92 34.8615 1421.38 34.6469 1421.03 34.2515C1419.2 32.237 1412.21 25.8447 1419.72 25.8447C1428.65 25.8447 1439.54 17.025 1439.58 16.9893L1439.58 16.9875L1456.07 0.592307Z" fill="#366F99"/>
<path d="M1099.88 0.672961C1100.71 -0.145043 1102.15 -0.110858 1102.92 0.74503L1114.43 13.4782C1114.44 13.4958 1114.45 13.506 1114.47 13.5231C1114.99 14.0548 1126.78 25.9254 1135.52 25.9254C1142.89 25.9254 1139.09 31.9949 1137.52 34.1297C1137.18 34.6008 1136.59 34.8615 1135.96 34.8615H1070C1068.27 34.8615 1067.36 33.0133 1068.52 31.8569L1099.88 0.672961Z" fill="#366F99"/>
<path d="M1169.99 0.592307C1170.78 -0.197429 1172.16 -0.197428 1172.95 0.592307L1204.4 31.8569C1205.56 33.0133 1204.65 34.8615 1202.91 34.8615H1136.41C1135.84 34.8615 1135.3 34.6469 1134.94 34.2515C1133.12 32.237 1128 25.9254 1135.52 25.9254C1144.44 25.9254 1153.46 17.025 1153.49 16.9893L1169.99 0.592307Z" fill="#366F99"/>
</svg>
