<svg width="1977" height="1346" viewBox="0 0 1977 1346" fill="none" xmlns="http://www.w3.org/2000/svg">
<path d="M1710.68 1318.46H884.201C858.264 1318.46 842.93 1289.37 857.58 1267.98L1164.38 819.482L1270.79 663.917C1283.62 645.187 1311.26 645.187 1324.05 663.917L1508.11 932.95L1737.31 1267.98C1751.96 1289.37 1736.62 1318.46 1710.68 1318.46V1318.46Z" fill="#3AD391"/>
<path d="M1710.65 1318.45H1623.57C1649.51 1318.45 1664.84 1289.37 1650.19 1267.98L1253.88 688.652L1270.79 663.941C1283.64 645.187 1311.25 645.187 1324.06 663.941L1737.31 1267.98C1751.96 1289.37 1736.6 1318.45 1710.65 1318.45Z" fill="#2DB37A"/>
<path d="M1508.11 932.962C1452.5 934.766 1421.66 919.114 1399.45 901.481C1366.6 875.414 1352.64 845.054 1305.29 860.729C1226.72 886.773 1185.41 853.416 1164.38 819.482L1253.88 688.652L1270.79 663.953C1283.65 645.199 1311.26 645.199 1324.05 663.953L1508.11 932.962Z" fill="#FFDFC8"/>
<path d="M1508.11 932.962C1452.5 934.767 1421.66 919.115 1399.45 901.481L1253.88 688.652L1270.79 663.953C1283.65 645.187 1311.26 645.187 1324.05 663.953L1508.11 932.962Z" fill="#FECBA9"/>
<path d="M1304.15 1318.46H229.319C203.37 1318.46 188.036 1289.37 202.698 1267.98L549.66 760.779L740.091 482.404C752.9 463.686 780.559 463.686 793.381 482.404L1022.7 817.607L1330.77 1267.98C1345.42 1289.37 1330.09 1318.46 1304.15 1318.46V1318.46Z" fill="#CBD359"/>
<path d="M1304.15 1318.45H1217.03C1243.01 1318.45 1258.34 1289.37 1243.69 1267.98L723.188 507.115L740.09 482.404C752.899 463.686 780.558 463.686 793.368 482.404L1330.77 1267.98C1345.42 1289.37 1330.1 1318.45 1304.15 1318.45V1318.45Z" fill="#BEC121"/>
<path d="M1022.7 817.619C999.014 839.758 977.866 849.253 958.085 850.491C874.47 855.787 816.026 714.306 701.449 766.759C625.242 801.625 578.144 786.539 549.659 760.79L723.164 507.138V507.115L740.09 482.416C752.899 463.686 780.559 463.686 793.38 482.416L1022.7 817.619Z" fill="#FFEC9C"/>
<path d="M1022.7 817.619C999.014 839.758 977.866 849.253 958.086 850.491L723.164 507.138V507.115L740.09 482.416C752.899 463.686 780.559 463.686 793.38 482.416L1022.7 817.619Z" fill="#FFDF4A"/>
<path d="M1181.14 260.694C1181.14 318.477 1134.3 365.327 1076.51 365.327C1018.72 365.327 971.886 318.477 971.886 260.694C971.886 202.91 1018.72 156.06 1076.51 156.06C1134.3 156.06 1181.14 202.91 1181.14 260.694V260.694Z" fill="#FFBD48"/>
<path d="M1076.51 63.8229C1063.63 63.8229 1053.18 53.3843 1053.18 40.5041V23.3306C1053.18 10.4386 1063.63 0 1076.51 0C1089.4 0 1099.84 10.4504 1099.84 23.3306V40.5041C1099.84 53.3843 1089.4 63.8229 1076.51 63.8229Z" fill="#FFBD48"/>
<path d="M1076.51 521.399C1063.63 521.399 1053.18 510.949 1053.18 498.068V480.895C1053.18 468.015 1063.63 457.564 1076.51 457.564C1089.4 457.564 1099.84 468.015 1099.84 480.895V498.068C1099.84 510.949 1089.4 521.399 1076.51 521.399Z" fill="#FFBD48"/>
<path d="M1232.21 128.318C1226.25 128.318 1220.28 126.042 1215.72 121.489C1206.61 112.383 1206.61 97.6157 1215.72 88.4981L1227.86 76.3492C1236.96 67.2435 1251.73 67.2317 1260.85 76.3492C1269.96 85.455 1269.97 100.222 1260.85 109.34L1248.72 121.489C1244.16 126.042 1238.19 128.318 1232.21 128.318V128.318Z" fill="#FFBD48"/>
<path d="M908.665 451.867C902.696 451.867 896.728 449.591 892.163 445.038C883.058 435.92 883.058 421.153 892.175 412.035L904.312 399.898C913.43 390.793 928.197 390.793 937.303 399.898C946.42 409.016 946.409 423.783 937.303 432.901L925.166 445.038C920.601 449.591 914.633 451.867 908.665 451.867Z" fill="#FFBD48"/>
<path d="M1313.88 284.024H1296.71C1283.83 284.024 1273.38 273.574 1273.38 260.694C1273.38 247.802 1283.83 237.363 1296.71 237.363H1313.88C1326.77 237.363 1337.21 247.813 1337.21 260.694C1337.21 273.574 1326.77 284.024 1313.88 284.024Z" fill="#FFBD48"/>
<path d="M856.318 284.024H839.145C826.253 284.024 815.814 273.574 815.814 260.694C815.814 247.802 826.264 237.363 839.145 237.363H856.318C869.198 237.363 879.649 247.813 879.649 260.694C879.649 273.574 869.198 284.024 856.318 284.024Z" fill="#FFBD48"/>
<path d="M1244.35 451.867C1238.38 451.867 1232.41 449.591 1227.86 445.038L1215.72 432.901C1206.61 423.783 1206.61 409.016 1215.72 399.898C1224.83 390.793 1239.6 390.793 1248.72 399.898L1260.85 412.035C1269.97 421.153 1269.97 435.92 1260.85 445.038C1256.3 449.591 1250.33 451.867 1244.35 451.867V451.867Z" fill="#FFBD48"/>
<path d="M920.813 128.318C914.833 128.318 908.865 126.042 904.312 121.489L892.163 109.352C883.058 100.234 883.058 85.4668 892.163 76.3492C901.281 67.2435 916.048 67.2435 925.166 76.3492L937.303 88.4863C946.42 97.6038 946.42 112.371 937.303 121.489C932.75 126.042 926.782 128.318 920.813 128.318Z" fill="#FFBD48"/>
<path d="M492.925 1191.69C483.901 1191.69 475.303 1186.42 471.493 1177.61L465.336 1163.38C460.229 1151.55 465.666 1137.81 477.485 1132.7C489.339 1127.58 503.057 1133.03 508.164 1144.85L514.321 1159.08C519.44 1170.91 513.991 1184.64 502.172 1189.76C499.152 1191.06 496.015 1191.69 492.925 1191.69Z" fill="#E6F073"/>
<path d="M561.796 1191.58C558.658 1191.58 555.462 1190.94 552.395 1189.6C540.612 1184.4 535.269 1170.62 540.459 1158.84L546.745 1144.58C551.947 1132.79 565.712 1127.45 577.507 1132.65C589.29 1137.84 594.633 1151.62 589.443 1163.41L583.156 1177.66C579.3 1186.39 570.76 1191.58 561.796 1191.58Z" fill="#E6F073"/>
<path d="M1262.94 1026.34C1253.92 1026.34 1245.32 1021.07 1241.51 1012.27L1235.35 998.023C1230.24 986.192 1235.68 972.463 1247.51 967.356C1259.34 962.248 1273.07 967.686 1278.18 979.504L1284.34 993.741C1289.45 1005.57 1284.02 1019.3 1272.19 1024.42C1269.17 1025.73 1266.03 1026.34 1262.94 1026.34V1026.34Z" fill="#2DB37A"/>
<path d="M1331.81 1026.25C1328.67 1026.25 1325.48 1025.61 1322.41 1024.25C1310.63 1019.05 1305.28 1005.29 1310.47 993.493L1316.76 979.245C1321.95 967.45 1335.73 962.095 1347.52 967.308C1359.3 972.498 1364.65 986.275 1359.46 998.058L1353.17 1012.32C1349.33 1021.05 1340.77 1026.25 1331.81 1026.25V1026.25Z" fill="#2DB37A"/>
<path d="M1327.34 1281.09H1392.31V1346H1327.34C1282.52 1346 1238.34 1334.64 1197.41 1313.55C1157.28 1334.37 1112.71 1345.25 1067.48 1345.25C1022.25 1345.25 977.687 1334.37 937.55 1313.55C896.622 1334.64 852.121 1346 807.619 1346H742.654V1281.09H807.619C852.77 1281.09 897.954 1265.91 937.55 1238C1016.71 1293.43 1118.25 1293.43 1197.41 1238C1237.01 1265.91 1282.19 1281.09 1327.34 1281.09Z" fill="#6CBBDD"/>
<path d="M1977 1281.1H1912.04C1866.88 1281.1 1821.7 1265.91 1782.1 1238C1702.94 1293.43 1601.4 1293.43 1522.24 1238C1482.64 1265.91 1437.46 1281.09 1392.31 1281.09H1327.34V1346H1392.31C1436.81 1346 1481.31 1334.64 1522.24 1313.55C1562.37 1334.38 1606.94 1345.25 1652.17 1345.25C1697.4 1345.25 1741.97 1334.38 1782.1 1313.55C1823.03 1334.64 1867.21 1346 1912.04 1346H1977V1281.1Z" fill="#6CBBDD"/>
<path d="M807.652 1281.1H742.687C697.536 1281.1 652.353 1265.91 612.757 1238C533.597 1293.43 432.056 1293.43 352.896 1238C313.299 1265.91 268.116 1281.1 222.965 1281.1H158V1346H222.965C267.466 1346 311.968 1334.64 352.896 1313.55C393.032 1334.38 437.597 1345.25 482.826 1345.25C528.055 1345.25 572.62 1334.38 612.757 1313.55C653.685 1334.64 697.861 1346 742.687 1346H807.652V1281.1Z" fill="#6CBBDD"/>
<path d="M453.083 1068.36L453.028 1068.3H36.5005L36.4458 1068.36C24.563 1081.59 24.563 1101.65 36.4458 1114.88L36.5005 1114.94C45.0083 1124.41 47.6645 1137.77 43.4302 1149.78L43.4224 1149.8C37.4966 1166.6 45.2036 1185.15 61.2817 1192.8C72.7935 1198.29 80.3872 1209.62 81.0708 1222.36L81.0747 1222.43C82.0317 1240.18 96.2075 1254.35 113.958 1255.31L114.032 1255.31C126.762 1256 138.098 1263.59 143.583 1275.11C151.235 1291.18 169.79 1298.89 186.583 1292.96L186.61 1292.96C198.618 1288.72 211.977 1291.38 221.446 1299.89L221.508 1299.94C234.735 1311.82 254.793 1311.82 268.024 1299.94L268.083 1299.89C277.555 1291.38 290.915 1288.72 302.918 1292.96L302.95 1292.96C319.739 1298.89 338.293 1291.18 345.95 1275.11C351.43 1263.59 362.766 1256 375.497 1255.31L375.571 1255.31C393.321 1254.35 407.497 1240.18 408.454 1222.43L408.458 1222.36C409.141 1209.62 416.735 1198.29 428.247 1192.81H428.25C444.325 1185.15 452.032 1166.6 446.11 1149.81L446.098 1149.78C441.864 1137.77 444.524 1124.41 453.028 1114.95L453.083 1114.88C464.965 1101.65 464.965 1081.59 453.083 1068.36V1068.36Z" fill="#3D4851"/>
<path d="M174.485 1275.11C169.004 1263.59 157.665 1256 144.934 1255.31L144.86 1255.31C127.114 1254.35 112.938 1240.18 111.981 1222.43L111.977 1222.36C111.29 1209.62 103.696 1198.29 92.1841 1192.8C76.1099 1185.15 68.4028 1166.6 74.3247 1149.8L74.3364 1149.77C78.5708 1137.77 75.9106 1124.41 67.4067 1114.94L67.3481 1114.88C55.4692 1101.65 55.4692 1081.59 67.3481 1068.36L67.4067 1068.3H36.5005L36.4458 1068.36C24.563 1081.59 24.563 1101.65 36.4458 1114.88L36.5005 1114.94C45.0044 1124.41 47.6645 1137.77 43.4302 1149.77L43.4185 1149.8C37.4966 1166.59 45.2036 1185.15 61.2778 1192.8C72.7895 1198.29 80.3833 1209.62 81.0708 1222.36L81.0747 1222.43C82.0317 1240.18 96.2075 1254.35 113.954 1255.31L114.032 1255.31C126.762 1256 138.098 1263.59 143.579 1275.1C151.235 1291.18 169.79 1298.89 186.583 1292.96L186.61 1292.95C188.122 1292.42 189.653 1292 191.196 1291.68C184.094 1288.37 178.086 1282.66 174.485 1275.11V1275.11Z" fill="#333A41"/>
<path d="M59.7271 964.117C41.4888 995.574 31.0317 1032.08 31.0317 1070.98H458.497C458.497 1032.08 448.04 995.574 429.805 964.117H59.7271Z" fill="#3D4851"/>
<path d="M59.7271 964.117C41.4888 995.574 31.0317 1032.08 31.0317 1070.98H72.2427C72.2427 1032.08 82.6958 995.574 100.934 964.117H59.7271Z" fill="#333A41"/>
<path d="M470.907 1081.31C470.907 1104.12 452.415 1122.61 429.602 1122.61C406.79 1122.61 388.297 1104.12 388.297 1081.31C388.297 1058.5 406.79 1040 429.602 1040C452.415 1040 470.907 1058.5 470.907 1081.31V1081.31Z" fill="#FFBD86"/>
<path d="M276.083 1241.31L293.629 1303.98L276.083 1346H213.446L195.899 1300.57L213.446 1241.31H276.083Z" fill="#E8E8E8"/>
<path d="M178.356 1303.98L195.899 1324.99L178.356 1346H132.208C132.208 1330.34 134.696 1316.3 138.516 1303.98L162.383 1293.66L178.356 1303.98Z" fill="#FED2A4"/>
<path d="M170.645 1299L162.387 1293.66L138.52 1303.98C134.696 1316.3 132.211 1330.34 132.211 1346H152.813C152.813 1330.34 155.301 1316.3 159.122 1303.98L170.645 1299Z" fill="#FFBD86"/>
<path d="M311.172 1303.98L293.629 1324.99L311.172 1346H357.321C357.321 1330.34 354.833 1316.3 351.012 1303.98L327.145 1293.66L311.172 1303.98Z" fill="#FED2A4"/>
<path d="M178.356 1241.31L195.899 1275.79L178.356 1303.98H138.52C151.149 1263.26 178.356 1241.31 178.356 1241.31Z" fill="#E8E8E8"/>
<path d="M178.356 1241.31C178.356 1241.31 151.149 1263.25 138.52 1303.98H159.122C165.868 1282.23 176.77 1265.84 185.469 1255.29L178.356 1241.31Z" fill="#D2D1D7"/>
<path d="M311.172 1241.31L293.629 1275.79L311.172 1303.98H351.008C338.379 1263.26 311.172 1241.31 311.172 1241.31Z" fill="#E8E8E8"/>
<path d="M178.356 1241.31H213.446V1346H178.356V1241.31Z" fill="#73D98B"/>
<path d="M276.083 1241.31H311.172V1346H276.083V1241.31Z" fill="#73D98B"/>
<path d="M427.54 1070.98C427.54 1171.93 345.708 1253.76 244.766 1253.76C143.821 1253.76 61.9888 1171.93 61.9888 1070.98C61.9888 970.039 143.821 888.211 244.766 888.211C345.708 888.211 427.54 970.039 427.54 1070.98Z" fill="#FED2A4"/>
<path d="M92.895 1070.98C92.895 975.246 166.508 896.711 260.215 888.867C255.122 888.437 249.969 888.211 244.766 888.211C154.282 888.211 79.1724 953.961 64.5708 1040.29C63.0825 1040.11 61.5396 1040 59.9263 1040C37.1138 1040 18.6216 1058.5 18.6216 1081.31C18.6216 1104.12 37.1138 1122.61 59.9263 1122.61C63.2349 1122.61 66.2739 1122.21 69.063 1121.48C90.9731 1197.86 161.34 1253.75 244.766 1253.75C249.969 1253.75 255.122 1253.53 260.219 1253.1C166.508 1245.25 92.895 1166.72 92.895 1070.98V1070.98Z" fill="#FFBD86"/>
<path d="M388.68 874.094C377.79 849.707 353.583 834 326.872 834H162.657C135.946 834 111.739 849.707 100.852 874.094L66.9575 950.027L98.7505 964.117H415.032L422.571 950.027L388.68 874.094Z" fill="#DE8957"/>
<path d="M131.758 874.094C142.641 849.707 166.852 834 193.563 834H162.657C135.946 834 111.739 849.707 100.852 874.094L66.9575 950.027L98.7505 964.117H129.657L97.8638 950.027L131.758 874.094Z" fill="#C76D33"/>
<path d="M338.586 1084.2C334.321 1084.2 330.86 1080.74 330.86 1076.47V1058.23C330.86 1053.96 334.321 1050.5 338.586 1050.5C342.852 1050.5 346.313 1053.96 346.313 1058.23V1076.47C346.313 1080.74 342.852 1084.2 338.586 1084.2Z" fill="#333A41"/>
<path d="M351.008 1111.01H326.165C321.895 1111.01 318.438 1107.55 318.438 1103.29C318.438 1099.02 321.895 1095.56 326.165 1095.56H351.008C355.278 1095.56 358.735 1099.02 358.735 1103.29C358.735 1107.55 355.278 1111.01 351.008 1111.01Z" fill="#FF8997"/>
<path d="M150.942 1084.2C146.676 1084.2 143.215 1080.74 143.215 1076.47V1058.23C143.215 1053.96 146.676 1050.5 150.942 1050.5C155.208 1050.5 158.668 1053.96 158.668 1058.23V1076.47C158.668 1080.74 155.208 1084.2 150.942 1084.2Z" fill="#333A41"/>
<path d="M163.364 1111.01H138.52C134.25 1111.01 130.793 1107.55 130.793 1103.29C130.793 1099.02 134.25 1095.56 138.52 1095.56H163.364C167.633 1095.56 171.09 1099.02 171.09 1103.29C171.09 1107.55 167.633 1111.01 163.364 1111.01Z" fill="#FF8997"/>
<path d="M244.766 1109.98C235.993 1109.98 227.758 1106.31 222.165 1099.92C219.356 1096.7 219.684 1091.82 222.899 1089.02C226.11 1086.21 230.993 1086.54 233.801 1089.75C236.457 1092.79 240.454 1094.53 244.766 1094.53C249.075 1094.53 253.071 1092.79 255.727 1089.75C258.54 1086.54 263.418 1086.21 266.629 1089.02C269.844 1091.82 270.172 1096.7 267.364 1099.92C261.77 1106.31 253.536 1109.98 244.766 1109.98V1109.98Z" fill="#333A41"/>
<path d="M65.4652 991.879C46.3441 991.879 27.223 986.859 10.1722 976.816C0.347994 971.035 -2.92544 958.387 2.85581 948.562C8.64096 938.742 21.2894 935.465 31.1136 941.246C52.3011 953.723 78.6292 953.723 99.8206 941.246C133.926 921.168 176.305 921.168 210.41 941.246C231.602 953.723 257.926 953.723 279.118 941.246C313.227 921.168 355.602 921.168 389.707 941.246C410.899 953.723 437.223 953.723 458.414 941.246C468.235 935.465 480.887 938.738 486.672 948.562C492.453 958.387 489.18 971.035 479.356 976.816C462.305 986.855 443.18 991.879 424.059 991.879C404.938 991.879 385.821 986.859 368.766 976.816C347.575 964.344 321.25 964.344 300.059 976.816C265.95 996.898 223.575 996.898 189.469 976.816C168.278 964.344 141.953 964.344 120.762 976.816C103.707 986.859 84.5863 991.879 65.4652 991.879V991.879Z" fill="#C76D33"/>
</svg>
