<svg width="174" height="121" viewBox="0 0 174 121" fill="none" xmlns="http://www.w3.org/2000/svg">
<path d="M113.562 0.378418H168.37C171.433 0.378418 174 2.44326 174 5.05872V32.4522C174 34.9989 171.516 37.1325 168.37 37.1325H164.644C162.906 40.8492 157.938 45.8049 144.112 47.8009C144.112 47.8009 150.735 42.2946 151.067 37.1325H113.479C110.416 37.1325 107.849 35.0677 107.849 32.4522V4.98989C107.932 2.44326 110.498 0.378418 113.562 0.378418Z" fill="white"/>
<path d="M125.856 13.5742H127.78V22.234H125.856V18.7976H122.42V22.234H120.495V13.5742H122.42V17.2168H125.856V13.5742Z" fill="#2C8DFF"/>
<path d="M136.165 13.5742V15.2924H131.835V17.0794H135.684V18.7288H131.835V20.5845H136.303V22.3027H129.911V13.5742H136.165Z" fill="#2C8DFF"/>
<path d="M138.021 22.234V13.5742H139.945V20.5158H143.656V22.234H138.021Z" fill="#2C8DFF"/>
<path d="M145.1 22.234V13.5742H147.024V20.5158H150.736V22.234H145.1Z" fill="#2C8DFF"/>
<path d="M159.189 21.0656C158.296 21.8903 157.265 22.3714 155.959 22.3714C154.653 22.3714 153.622 21.9591 152.729 21.0656C151.835 20.2409 151.423 19.1412 151.423 17.9041C151.423 16.5983 151.835 15.5673 152.729 14.7426C153.622 13.9179 154.653 13.4368 155.959 13.4368C157.265 13.4368 158.296 13.8491 159.189 14.7426C160.083 15.5673 160.495 16.667 160.495 17.9041C160.495 19.1412 160.083 20.2409 159.189 21.0656ZM158.502 17.9041C158.502 17.1481 158.227 16.4608 157.746 15.911C157.265 15.3612 156.715 15.0862 155.959 15.0862C155.203 15.0862 154.653 15.3612 154.103 15.911C153.553 16.4608 153.347 17.1481 153.347 17.9041C153.347 18.6601 153.622 19.3474 154.103 19.8972C154.584 20.447 155.203 20.722 155.959 20.722C156.715 20.722 157.265 20.447 157.815 19.8972C158.296 19.2787 158.502 18.6601 158.502 17.9041Z" fill="#2C8DFF"/>
<path d="M84.7601 105.183C84.7601 102.817 86.678 100.899 89.0439 100.899H137.087C137.106 100.662 137.118 100.423 137.118 100.181V67.6098C137.118 60.2334 131.138 54.2534 123.762 54.2534H92.2047C79.894 54.2534 67.8508 57.8459 57.552 64.5903L19.551 89.4758C19.551 100.517 28.5013 109.467 39.5421 109.467H50.9655H127.832C131.118 109.467 134.003 107.759 135.653 105.183H84.7601Z" fill="#4B7AC0"/>
<path d="M78.3346 104.15C77.7094 104.15 77.0939 103.895 76.6524 103.451C76.5415 103.344 76.4431 103.22 76.3543 103.089C76.2686 102.963 76.1958 102.823 76.1353 102.68C76.0781 102.537 76.0305 102.385 76.0019 102.236C75.9703 102.08 75.9546 101.925 75.9546 101.769C75.9546 101.614 75.9703 101.459 76.0019 101.306C76.0305 101.154 76.0781 101.002 76.1353 100.859C76.1958 100.716 76.2686 100.576 76.3543 100.449C76.4431 100.319 76.5415 100.196 76.6524 100.088C77.0936 99.6432 77.7091 99.3894 78.3346 99.3894C78.9627 99.3894 79.5754 99.6432 80.0166 100.088C80.1275 100.196 80.2262 100.319 80.3146 100.449C80.4004 100.576 80.4732 100.716 80.5337 100.859C80.5909 101.002 80.6385 101.154 80.6671 101.306C80.6987 101.459 80.7147 101.614 80.7147 101.769C80.7147 101.925 80.6987 102.08 80.6671 102.236C80.6385 102.385 80.5909 102.537 80.5337 102.68C80.4732 102.823 80.4004 102.963 80.3146 103.089C80.2262 103.22 80.1275 103.344 80.0166 103.451C79.9088 103.563 79.7883 103.661 79.655 103.75C79.5277 103.835 79.3882 103.908 79.2457 103.969C79.1028 104.026 78.9504 104.074 78.8014 104.102C78.6453 104.134 78.4898 104.15 78.3346 104.15Z" fill="#2B2B2B"/>
<path d="M42.4053 120.898C42.4053 111.757 49.8155 104.346 58.9566 104.346C58.9566 113.488 51.5463 120.898 42.4053 120.898Z" fill="#4B7AC0"/>
<path d="M21.6148 90.8559L17.4978 86.7389C12.6661 81.9072 12.6661 74.0732 17.4978 69.2412L21.6148 73.3582C26.4465 78.1899 26.4465 86.0239 21.6148 90.8559Z" fill="#4B7AC0"/>
<path d="M21.6147 90.856L17.4977 86.739C12.666 81.9073 4.83201 81.9073 0 86.739L4.11701 90.856C8.94902 95.6877 16.783 95.6877 21.6147 90.856Z" fill="#4B7AC0"/>
<circle cx="85.7263" cy="38.5829" r="4.9162" fill="white"/>
<circle cx="69.1341" cy="30.5941" r="3.07262" fill="white"/>
<circle cx="73.282" cy="23.9881" r="2.30447" fill="white"/>
</svg>
