<svg width="170" height="123" viewBox="0 0 170 123" fill="none" xmlns="http://www.w3.org/2000/svg">
<path d="M60.3004 0H5.61702C2.5607 0 0 2.04644 0 4.63861V31.7881C0 34.312 2.4781 36.4267 5.61702 36.4267H9.33417C11.0688 40.1103 16.025 45.0218 29.8198 47C29.8198 47 23.2115 41.5428 22.8811 36.4267H60.383C63.4393 36.4267 66 34.3803 66 31.7881V4.57039C65.9174 2.04644 63.3567 0 60.3004 0Z" fill="white"/>
<path d="M17.856 14.1959H19.7804V22.8556H17.856V19.4192H14.4196V22.8556H12.4952V14.1959H14.4196V17.8385H17.856V14.1959Z" fill="#2C8DFF"/>
<path d="M28.1652 14.1959V15.9141H23.8353V17.701H27.6841V19.3505H23.8353V21.2061H28.3026V22.9243H21.9109V14.1959H28.1652Z" fill="#2C8DFF"/>
<path d="M30.0209 22.8556V14.1959H31.9453V21.1374H35.6566V22.8556H30.0209Z" fill="#2C8DFF"/>
<path d="M37.0999 22.8556V14.1959H39.0243V21.1374H42.7356V22.8556H37.0999Z" fill="#2C8DFF"/>
<path d="M51.1891 21.6873C50.2957 22.512 49.2647 22.9931 47.9589 22.9931C46.6531 22.9931 45.6222 22.5808 44.7287 21.6873C43.8352 20.8626 43.4229 19.7629 43.4229 18.5258C43.4229 17.22 43.8352 16.189 44.7287 15.3643C45.6222 14.5396 46.6531 14.0585 47.9589 14.0585C49.2647 14.0585 50.2957 14.4708 51.1891 15.3643C52.0826 16.189 52.495 17.2887 52.495 18.5258C52.495 19.7629 52.0826 20.8626 51.1891 21.6873ZM50.5019 18.5258C50.5019 17.7698 50.2269 17.0825 49.7458 16.5327C49.2647 15.9829 48.7149 15.7079 47.9589 15.7079C47.2029 15.7079 46.6531 15.9829 46.1033 16.5327C45.5534 17.0825 45.3472 17.7698 45.3472 18.5258C45.3472 19.2818 45.6222 19.9691 46.1033 20.5189C46.5843 21.0687 47.2029 21.3437 47.9589 21.3437C48.7149 21.3437 49.2647 21.0687 49.8146 20.5189C50.2957 19.9004 50.5019 19.2818 50.5019 18.5258Z" fill="#2C8DFF"/>
<path d="M82.9131 106.735C82.9131 104.304 80.9425 102.333 78.5117 102.333H29.1493C29.1307 102.089 29.118 101.844 29.118 101.595V68.1302C29.118 60.5513 35.2621 54.4072 42.8411 54.4072H75.2641C87.9128 54.4072 100.287 58.0983 110.868 65.0279L149.912 90.5965C149.912 101.94 140.716 111.136 129.372 111.136H117.635H38.6593C35.283 111.136 32.3186 109.381 30.6226 106.735H82.9131Z" fill="#4B7AC0"/>
<path d="M89.5149 105.673C90.1574 105.673 90.7897 105.412 91.2434 104.956C91.3573 104.845 91.4584 104.718 91.5496 104.584C91.6377 104.453 91.7125 104.31 91.7747 104.163C91.8334 104.016 91.8823 103.86 91.9117 103.707C91.9442 103.547 91.9603 103.387 91.9603 103.228C91.9603 103.068 91.9442 102.908 91.9117 102.751C91.8823 102.595 91.8334 102.439 91.7747 102.292C91.7125 102.145 91.6377 102.002 91.5496 101.871C91.4584 101.737 91.3573 101.611 91.2434 101.499C90.79 101.043 90.1577 100.782 89.5149 100.782C88.8697 100.782 88.2402 101.043 87.7868 101.499C87.6728 101.611 87.5715 101.737 87.4806 101.871C87.3925 102.002 87.3177 102.145 87.2555 102.292C87.1968 102.439 87.1478 102.595 87.1185 102.751C87.086 102.908 87.0695 103.067 87.0695 103.228C87.0695 103.387 87.086 103.547 87.1185 103.707C87.1478 103.86 87.1968 104.016 87.2555 104.163C87.3177 104.31 87.3925 104.453 87.4806 104.584C87.5715 104.718 87.6728 104.845 87.7868 104.956C87.8976 105.07 88.0214 105.171 88.1584 105.262C88.2891 105.35 88.4324 105.425 88.5789 105.487C88.7257 105.546 88.8823 105.595 89.0354 105.624C89.1958 105.657 89.3555 105.673 89.5149 105.673Z" fill="#2B2B2B"/>
<path d="M126.431 122.881C126.431 113.489 118.817 105.875 109.425 105.875C109.425 115.268 117.039 122.881 126.431 122.881Z" fill="#4B7AC0"/>
<path d="M147.792 92.0144L152.022 87.7844C156.986 82.8201 156.986 74.7711 152.022 69.8064L147.792 74.0364C142.828 79.0008 142.828 87.0498 147.792 92.0144Z" fill="#4B7AC0"/>
<path d="M147.792 92.0144L152.022 87.7844C156.986 82.8201 165.035 82.8201 170 87.7844L165.77 92.0144C160.805 96.9788 152.756 96.9788 147.792 92.0144Z" fill="#4B7AC0"/>
<circle r="5.05115" transform="matrix(-1 0 0 1 81.9205 38.3067)" fill="white"/>
<circle r="3.15697" transform="matrix(-1 0 0 1 98.9682 30.0985)" fill="white"/>
<circle r="2.36773" transform="matrix(-1 0 0 1 94.7062 23.3111)" fill="white"/>
</svg>
