<svg width="17" height="15" viewBox="0 0 17 15" fill="none" xmlns="http://www.w3.org/2000/svg">
<path className="twitter-svg" d="M16.6667 1.77577C16.0469 2.07692 15.3865 2.27654 14.6979 2.37346C15.4062 1.905 15.9469 1.16885 16.201 0.281538C15.5406 0.717692 14.8115 1.02577 14.0344 1.19769C13.4073 0.458077 12.5135 0 11.5385 0C9.64688 0 8.12396 1.70077 8.12396 3.78577C8.12396 4.08577 8.14687 4.37423 8.20312 4.64885C5.3625 4.49538 2.84896 2.98731 1.16042 0.69C0.865625 1.25654 0.692708 1.905 0.692708 2.60308C0.692708 3.91385 1.30208 5.07577 2.21042 5.74846C1.66146 5.73692 1.12292 5.56038 0.666667 5.28231C0.666667 5.29385 0.666667 5.30885 0.666667 5.32385C0.666667 7.16308 1.85104 8.69077 3.40417 9.04269C3.12604 9.12692 2.82292 9.16731 2.50833 9.16731C2.28958 9.16731 2.06875 9.15346 1.86146 9.10269C2.30417 10.6015 3.56042 11.7035 5.05417 11.7392C3.89167 12.7465 2.41563 13.3535 0.817708 13.3535C0.5375 13.3535 0.26875 13.3396 0 13.3015C1.51354 14.3827 3.30729 15 5.24167 15C11.5292 15 14.9667 9.23077 14.9667 4.23C14.9667 4.06269 14.9615 3.90115 14.9542 3.74077C15.6323 3.20769 16.2021 2.54192 16.6667 1.77577Z" fill="#79ACD0"/>
</svg>
